<svg xmlns="http://www.w3.org/2000/svg" version="1.1" xmlns:xlink="http://www.w3.org/1999/xlink" xmlns:svgjs="http://svgjs.dev/svgjs" viewBox="0 0 640 800" opacity="1"><defs><linearGradient x1="50%" y1="0%" x2="50%" y2="100%" id="ccchaos-grad"><stop stop-color="hsl(206, 75%, 49%)" stop-opacity="1" offset="0%"></stop><stop stop-color="#1ce8a8" stop-opacity="1" offset="100%"></stop></linearGradient></defs><g stroke-width="2.5" stroke="url(#ccchaos-grad)" fill="none" stroke-linecap="round"><path d="M322.59 113.81C332.52 117.9 342.67 122.14 353.02 126.21 363.39 129.44 373.97 132.13 384.74 134.21 395.54 135.2 406.52 135.69 417.61 135.82 428.69 135.28 439.82 134.82 450.89 134.66 461.82 134.55 472.55 135.2 482.92 136.76 492.92 138.94 502.32 142.26 510.94 146.73 518.89 152 525.81 158.38 531.51 165.74 536.35 173.73 539.85 182.48 541.96 191.81 543.3 201.45 543.43 211.42 542.49 221.58 541.36 231.73 539.72 241.9 537.94 252.02 536.96 261.92 536.61 271.72 537.29 281.39 539.77 290.8 543.84 300.11 549.66 309.35 557.53 318.36 567 327.38 577.76 336.45 589.59 345.36 601.67 354.4 613.3 363.61 624.05 372.73 632.95 382.09 639.29 391.71 643.03 401.29 643.44 411.18 640.38 421.37 634.6 431.55 626.15 441.82 615.78 452.11 604.59 462.4 593.03 472.69 581.89 482.91 572.08 493.07 563.8 503.08 557.39 512.83 553.33 522.41 551.23 531.61 550.86 540.29 552.4 548.63 554.93 556.3 557.96 563.15 566.18 578.47 563.41 590.2 555.51 591.11 548.57 591.86 540.29 592.62 530.91 593.7 520.78 595.9 509.93 598.99 498.6 603.26 486.96 609.23 475.13 616.64 463.29 625.5 451.44 635.88 439.73 647.3 428.24 659.36 416.88 671.75 405.76 683.71 394.92 694.56 384.22 703.97 373.75 711.12 363.51 715.47 353.36 717.2 343.38 715.77 333.58 711.25 323.81 704.59 314.16 695.78 304.65 685.53 295.14 675.32 285.97 665.62 277.14 657.18 268.3 650.93 259.8 646.84 251.65 645.01 243.49 645.8 235.68 648.44 228.24 652.46 220.78 657.85 213.66 663.44 206.88 668.58 200.04 673.35 193.49 676.61 187.21 678.04 180.78 677.91 174.54 675.55 168.45 671.04 162.08 664.84 155.78 656.77 149.5 647.15 142.84 636.45 136.13 624.79 129.36 612.54 122.2 600.01 114.99 587.39 107.75 574.95 100.25 562.79 92.84 551.05 85.62 539.81 78.38 529.09 71.51 518.88 65.14 509.13 59.06 499.87 53.65 490.94 49.05 482.26 44.92 473.91 41.67 465.65 39.34 457.37 37.47 449.28 36.43 441.04 36.18 432.61 36.13 424.25 36.65 415.62 37.62 406.69 38.4 397.76 39.38 388.52 40.46 378.96 41.04 369.4 41.59 359.76 42.1 350.1 42.1 340.46 42.18 330.85 42.4 321.32 42.39 311.87 42.76 302.58 43.62 293.54 44.61 284.65 46.31 276.08 48.77 267.93 51.65 260 55.39 252.57 59.98 245.71 65.06 239.11 70.94 233.12 77.52 227.77 84.45 222.63 91.93 218.08 99.85 214.09 107.88 210.12 116.17 206.55 124.63 203.27 132.96 199.71 141.34 196.19 149.73 192.6 157.84 188.38 165.92 183.86 173.96 178.94 181.7 173.23 189.43 167.07 197.2 160.52 204.69 153.34 212.29 145.99 220.01 138.67 227.55 131.27 235.29 124.35 243.26 118.2 251.12 112.68 259.27 108.36 267.74 105.45 276.14 103.61 284.9 103.3 294.03 104.49 303.13 106.54 312.65 109.73 322.58 113.81" stroke-dasharray="1 9" transform="rotate(0, 320, 400)" opacity="0.33"></path><path d="M329.37 124.8C339.08 128.86 348.96 133.06 358.99 137.13 369.04 140.42 379.25 143.23 389.58 145.46 399.9 146.67 410.32 147.36 420.74 147.68 431.1 147.29 441.39 146.9 451.5 146.7 461.41 146.43 470.98 146.78 480.07 147.91 488.75 149.52 496.75 152.15 503.89 155.85 510.41 160.26 515.91 165.75 520.25 172.22 523.88 179.34 526.33 187.28 527.6 195.87 528.35 204.87 528.16 214.31 527.22 224.05 526.35 233.9 525.26 243.89 524.28 253.91 524.25 263.85 524.99 273.73 526.82 283.53 530.36 293.16 535.38 302.7 541.97 312.16 550.32 321.44 560 330.68 570.67 339.92 582.12 349.03 593.61 358.2 604.49 367.45 614.43 376.63 622.55 385.95 628.25 395.43 631.56 404.89 631.79 414.54 628.84 424.38 623.41 434.22 615.52 444.02 605.8 453.74 595.26 463.44 584.25 473.04 573.47 482.44 563.78 491.77 555.36 500.84 548.52 509.55 543.77 518.07 540.79 526.12 539.45 533.59 540.72 543.98 548.19 560.32 551.96 566.03 553.11 572.86 537.28 579.09 526.1 582.09 517.5 585.43 508.04 589.72 497.96 595.17 487.46 602.14 476.6 610.39 465.55 619.84 454.39 630.49 443.21 641.88 432.13 653.6 421.08 665.37 410.21 676.5 399.54 686.37 388.96 694.77 378.59 700.95 368.46 704.47 358.39 705.59 348.52 703.8 338.86 699.21 329.23 692.72 319.77 684.28 310.49 674.54 301.21 664.82 292.31 655.52 283.79 647.32 275.25 641.06 267.06 636.71 259.24 634.4 251.39 634.5 243.88 636.35 236.72 639.56 229.49 644.21 222.58 649.23 215.97 654.06 209.24 658.8 202.76 662.37 196.49 664.44 190.02 665.27 183.68 664.14 177.44 661.05 170.91 656.43 164.4 649.97 157.87 641.94 150.99 632.75 144.06 622.45 137.07 611.35 129.75 599.76 122.41 587.83 115.09 575.83 107.59 563.88 100.23 552.14 93.12 540.73 86.07 529.67 79.44 519.01 73.35 508.76 67.58 498.9 62.52 489.4 58.26 480.18 54.49 471.27 51.58 462.53 49.55 453.89 47.97 445.43 47.18 436.96 47.13 428.43 47.26 419.97 47.91 411.37 48.97 402.6 49.84 393.85 50.88 384.9 52 375.76 52.61 366.61 53.18 357.49 53.68 348.44 53.67 339.41 53.7 330.48 53.85 321.73 53.74 313.05 53.96 304.59 54.62 296.43 55.37 288.41 56.77 280.75 58.88 273.53 61.37 266.49 64.69 259.94 68.82 253.93 73.43 248.11 78.83 242.83 84.96 238.1 91.46 233.47 98.57 229.32 106.16 225.6 113.92 221.78 122.02 218.21 130.34 214.81 138.63 211.02 147.02 207.18 155.46 203.17 163.71 198.51 171.96 193.52 180.18 188.15 188.15 182.05 196.11 175.56 204.08 168.77 211.8 161.48 219.58 154.13 227.45 146.91 235.13 139.74 242.97 133.13 250.98 127.33 258.88 122.21 267.01 118.28 275.42 115.72 283.75 114.19 292.4 114.1 301.38 115.44 310.33 117.56 319.66 120.76 329.36 124.8" stroke-dasharray="4 2" transform="rotate(4.04, 320, 400)" opacity="0.62"></path><path d="M335.23 135.8C344.68 139.8 354.24 143.96 363.88 148.02 373.53 151.37 383.26 154.27 393.02 156.65 402.76 158.06 412.48 158.98 422.1 159.49 431.63 159.29 440.97 159.01 450.01 158.83 458.83 158.48 467.2 158.61 474.99 159.38 482.39 160.51 489.05 162.53 494.85 165.51 500.1 169.12 504.39 173.74 507.63 179.31 510.32 185.51 512.02 192.56 512.76 200.33 513.23 208.55 513.02 217.3 512.33 226.45 511.93 235.81 511.55 245.41 511.48 255.14 512.45 264.89 514.26 274.67 517.16 284.42 521.65 294.09 527.49 303.69 534.68 313.23 543.37 322.64 553.11 332.01 563.57 341.33 574.58 350.55 585.43 359.78 595.55 369.01 604.7 378.2 612.07 387.44 617.17 396.74 620.07 406.02 620.14 415.4 617.3 424.85 612.22 434.31 604.85 443.61 595.77 452.73 585.86 461.82 575.42 470.7 565.06 479.28 555.55 487.79 547.06 495.93 539.91 503.64 534.58 511.18 530.83 518.19 528.59 524.58 528.38 533.46 533.5 547.16 536.78 551.93 539.2 558.48 528.39 567.19 519.43 571.81 512.34 576.26 504.33 581.65 495.58 588.12 486.36 595.92 476.64 604.79 466.59 614.61 456.33 625.34 445.91 636.52 435.47 647.75 424.98 658.8 414.55 669.03 404.26 677.91 394 685.31 383.9 690.56 373.99 693.32 364.14 693.88 354.47 691.79 345 687.16 335.57 680.86 326.31 672.8 317.26 663.54 308.21 654.32 299.54 645.42 291.26 637.46 282.95 631.22 275 626.67 267.4 623.93 259.76 623.4 252.44 624.51 245.43 626.95 238.33 630.83 231.51 635.22 224.93 639.63 218.22 644.18 211.69 647.89 205.32 650.39 198.73 651.96 192.23 651.86 185.78 650.01 179.04 646.82 172.3 641.89 165.53 635.41 158.45 627.79 151.32 618.95 144.16 609.17 136.73 598.74 129.33 587.78 122 576.53 114.57 565.13 107.34 553.73 100.41 542.48 93.61 531.4 87.28 520.59 81.52 510.11 76.13 499.91 71.44 490.02 67.56 480.44 64.16 471.1 61.59 461.98 59.87 453.05 58.56 444.27 58.01 435.58 58.15 426.94 58.44 418.38 59.21 409.79 60.36 401.15 61.3 392.54 62.39 383.84 63.54 375.07 64.18 366.3 64.76 357.65 65.26 349.18 65.25 340.71 65.26 332.44 65.35 324.41 65.16 316.43 65.26 308.74 65.74 301.4 66.27 294.14 67.39 287.29 69.17 280.87 71.28 274.58 74.17 268.75 77.83 263.42 81.96 258.19 86.86 253.43 92.48 249.12 98.51 244.81 105.16 240.85 112.34 237.2 119.75 233.35 127.55 229.64 135.64 225.97 143.77 221.86 152.08 217.61 160.48 213.14 168.77 208.04 177.09 202.6 185.42 196.81 193.56 190.37 201.7 183.64 209.83 176.69 217.76 169.37 225.72 162.1 233.74 155.06 241.59 148.17 249.54 141.91 257.63 136.5 265.6 131.8 273.76 128.27 282.13 126.06 290.44 124.82 299 124.95 307.84 126.41 316.66 128.6 325.78 131.8 335.22 135.79" stroke-dasharray="3 10" transform="rotate(8.08, 320, 400)" opacity="0.65"></path><path d="M339.61 146.79C348.75 150.74 357.92 154.85 367.11 158.88 376.28 162.27 385.45 165.26 394.55 167.78 403.62 169.39 412.56 170.52 421.3 171.25 429.93 171.27 438.27 171.14 446.22 171.02 453.93 170.66 461.13 170.65 467.71 171.16 476.66 172.64 489.9 180.49 493.98 187.08 496.03 192.37 497.28 198.5 497.8 205.37 498.26 212.71 498.27 220.66 498.05 229.08 498.3 237.78 498.74 246.81 499.63 256.06 501.59 265.42 504.41 274.89 508.29 284.4 513.6 293.9 520.09 303.39 527.74 312.83 536.61 322.22 546.29 331.55 556.46 340.82 566.94 350.04 577.12 359.22 586.48 368.35 594.85 377.45 601.51 386.54 606.04 395.6 608.56 404.66 608.49 413.72 605.77 422.75 601.01 431.78 594.15 440.57 585.69 449.07 576.41 457.56 566.55 465.73 556.63 473.53 547.37 481.26 538.9 488.56 531.54 495.38 525.74 502.06 521.33 508.19 518.27 513.71 517.96 527.36 524.36 541.47 525.55 544.59 525.18 548.03 517.89 556.67 510.92 562.9 505.25 568.36 498.64 574.72 491.24 582.03 483.35 590.45 474.87 599.73 465.94 609.71 456.74 620.31 447.26 631.11 437.63 641.73 427.89 651.97 418.1 661.27 408.36 669.16 398.59 675.6 388.92 679.97 379.38 682.03 369.86 682.08 360.49 679.74 351.3 675.11 342.13 669.01 333.12 661.32 324.3 652.55 315.47 643.8 307.02 635.31 298.93 627.62 290.82 621.44 283.04 616.72 275.58 613.62 268.07 612.52 260.84 612.93 253.89 614.61 246.84 617.72 240.01 621.44 233.38 625.35 226.59 629.59 219.95 633.25 213.41 636 206.66 638.1 199.96 638.8 193.28 637.99 186.34 636.05 179.39 632.53 172.4 627.52 165.16 621.43 157.89 614.09 150.62 605.72 143.17 596.62 135.78 586.83 128.53 576.56 121.25 566 114.23 555.25 107.56 544.47 101.08 533.7 95.1 523.06 89.72 512.63 84.73 502.36 80.45 492.35 76.96 482.6 73.94 473.03 71.72 463.7 70.31 454.58 69.27 445.59 68.94 436.76 69.26 428.05 69.69 419.42 70.56 410.85 71.78 402.35 72.78 393.86 73.9 385.4 75.07 376.97 75.75 368.53 76.34 360.33 76.85 352.37 76.85 344.41 76.85 336.72 76.91 329.33 76.66 321.98 76.66 314.95 76.98 308.3 77.32 301.7 78.19 295.5 79.65 289.72 81.4 284.01 83.87 278.73 87.07 273.88 90.7 269.04 95.08 264.59 100.18 260.5 105.68 256.31 111.82 252.37 118.51 248.62 125.49 244.59 132.9 240.6 140.65 236.57 148.52 232.06 156.61 227.37 164.86 222.44 173.08 216.9 181.38 211.06 189.71 204.91 197.92 198.22 206.15 191.32 214.38 184.3 222.46 177.04 230.56 169.92 238.69 163.14 246.68 156.59 254.74 150.72 262.89 145.73 270.93 141.45 279.12 138.32 287.45 136.46 295.73 135.51 304.21 135.84 312.89 137.42 321.55 139.67 330.45 142.86 339.59 146.79" stroke-dasharray="5 10" transform="rotate(12.12, 320, 400)" opacity="0.89"></path><path d="M342.05 157.79C350.85 161.67 359.59 165.71 368.25 169.71 376.91 173.12 385.45 176.19 393.85 178.84 402.19 180.63 410.31 181.98 418.16 182.94 425.88 183.18 433.23 183.23 440.13 183.24 449.87 182.89 465.86 184.15 471.82 186.48 476.53 190.21 481.98 202.61 483.09 211.16 483.76 217.58 484.22 224.63 484.63 232.21 485.61 240.12 486.93 248.43 488.78 257.03 491.69 265.81 495.44 274.78 500.16 283.86 506.15 293 513.15 302.18 521.08 311.35 530.01 320.52 539.51 329.67 549.28 338.74 559.19 347.8 568.67 356.8 577.27 365.73 584.88 374.64 590.87 383.49 594.86 392.25 597.03 401.02 596.84 409.71 594.23 418.29 589.8 426.87 583.43 435.13 575.56 443.05 566.9 450.94 557.62 458.46 548.17 465.56 539.22 472.6 530.85 479.19 523.37 485.27 514.74 493.97 505.58 508.46 504.53 514.24 507.51 523.68 510.8 536.25 509.26 541.17 507.41 545.3 504.55 549.99 500.71 555.35 496.3 561.7 490.98 568.84 484.87 576.77 478.29 585.61 471.05 595.08 463.29 605.01 455.23 615.31 446.8 625.58 438.1 635.48 429.25 644.86 420.26 653.2 411.19 660.12 402.08 665.62 392.97 669.18 383.91 670.59 374.86 670.21 365.89 667.65 357.04 663.05 348.2 657.16 339.49 649.85 330.91 641.55 322.34 633.28 314.1 625.2 306.18 617.78 298.23 611.68 290.58 606.86 283.21 603.44 275.78 601.83 268.59 601.6 261.62 602.57 254.55 604.93 247.66 607.95 240.92 611.29 234.03 615.11 227.23 618.58 220.51 621.4 213.59 623.81 206.7 625.1 199.81 625.12 192.7 624.23 185.58 621.93 178.44 618.26 171.1 613.62 163.77 607.74 156.49 600.8 149.1 593.11 141.82 584.62 134.73 575.52 127.69 566.02 120.95 556.16 114.62 546.12 108.52 535.96 102.94 525.78 97.99 515.68 93.43 505.64 89.58 495.76 86.5 486.08 83.86 476.52 81.98 467.16 80.87 458.01 80.09 448.97 79.97 440.11 80.44 431.42 81 422.8 81.96 414.3 83.24 405.95 84.28 397.61 85.43 389.37 86.61 381.25 87.31 373.14 87.92 365.31 88.45 357.8 88.47 350.29 88.47 343.1 88.5 336.24 88.22 329.4 88.14 322.91 88.34 316.8 88.84 307.86 92.78 291.91 96.56 284.88 99.7 280.25 103.56 275.92 108.1 271.85 113.04 267.62 118.63 263.53 124.78 259.55 131.24 255.23 138.18 250.88 145.5 246.43 152.99 241.5 160.76 236.37 168.74 230.99 176.76 225.07 184.9 218.89 193.13 212.47 201.3 205.61 209.51 198.64 217.74 191.65 225.87 184.53 234.03 177.65 242.2 171.18 250.26 165.02 258.37 159.58 266.54 155.03 274.62 151.18 282.79 148.45 291.06 146.92 299.28 146.25 307.64 146.78 316.13 148.46 324.61 150.75 333.25 153.92 342.04 157.78" stroke-dasharray="3 8" transform="rotate(16.16, 320, 400)" opacity="0.99"></path><path d="M342.34 168.78C350.74 172.58 359.01 176.56 367.11 180.51 375.2 183.93 383.11 187.06 390.77 189.82 398.38 191.79 405.7 193.35 412.68 194.54 422.75 195.15 440.28 195.21 447.48 195.42 458.14 198.3 467.51 210.63 468.94 217.83 470.03 223.31 471.06 229.44 472.2 236.11 473.99 243.14 476.19 250.61 478.97 258.44 482.73 266.49 487.29 274.8 492.72 283.27 499.23 291.87 506.58 300.56 514.66 309.29 523.5 318.07 532.71 326.85 542.02 335.58 551.31 344.33 560.07 353.02 567.92 361.62 574.8 370.23 580.14 378.74 583.64 387.13 585.48 395.53 585.18 403.81 582.69 411.92 578.57 420.04 572.67 427.79 565.38 435.16 557.33 442.51 548.63 449.45 539.68 455.96 531.08 462.42 522.88 468.43 515.38 473.95 508.99 479.42 503.59 484.4 499.23 488.88 493.93 500.72 494.71 515.62 495.64 520.41 496.07 526.05 492.94 540.11 489.02 549.11 485.66 556.15 481.47 563.87 476.52 572.22 471.14 581.24 465.1 590.69 458.49 600.38 451.58 610.22 444.22 619.85 436.51 628.95 428.64 637.42 420.51 644.8 412.23 650.76 403.88 655.38 395.43 658.19 386.96 659.02 378.47 658.25 369.98 655.53 361.55 650.98 353.12 645.32 344.75 638.39 336.46 630.56 328.17 622.75 320.15 615.07 312.4 607.95 304.62 601.97 297.08 597.07 289.77 593.41 282.4 591.35 275.22 590.54 268.21 590.83 261.11 592.46 254.14 594.77 247.28 597.49 240.28 600.81 233.34 603.97 226.45 606.69 219.39 609.23 212.34 610.89 205.3 611.53 198.09 611.47 190.87 610.19 183.67 607.69 176.33 604.35 169.04 599.84 161.84 594.29 154.6 588.01 147.53 580.87 140.69 573.05 133.97 564.75 127.6 555.98 121.66 546.88 116 537.57 110.88 528.1 106.38 518.6 102.28 509.05 98.87 499.56 96.2 490.19 93.94 480.86 92.4 471.69 91.56 462.71 91.03 453.78 91.1 445.04 91.71 436.48 92.38 427.97 93.41 419.62 94.72 411.46 95.79 403.31 96.96 395.31 98.15 387.49 98.87 379.66 99.5 372.18 100.04 365.05 100.09 357.91 100.1 351.12 100.13 344.68 99.77 335.2 100.08 318.01 101.22 310.29 103.17 302.83 110.66 289.2 116.32 282.82 120.69 278.4 125.69 274.06 131.25 269.74 137.14 265.07 143.53 260.31 150.33 255.42 157.35 250.08 164.69 244.54 172.29 238.77 179.98 232.54 187.85 226.11 195.84 219.51 203.83 212.6 211.91 205.65 220.02 198.78 228.09 191.9 236.19 185.33 244.3 179.23 252.35 173.5 260.42 168.51 268.52 164.41 276.57 161.01 284.67 158.66 292.81 157.47 300.92 157.05 309.11 157.76 317.36 159.53 325.6 161.85 333.93 164.99 342.33 168.78" stroke-dasharray="4 6" transform="rotate(20.200000000000003, 320, 400)" opacity="0.71"></path><path d="M340.44 179.78C348.41 183.49 356.17 187.38 363.7 191.27 371.22 194.69 378.48 197.87 385.44 200.72 392.35 202.86 398.92 204.62 405.1 206.02 413.99 207 429.19 207.57 435.34 207.79 444.62 209.87 453.65 219.54 455.66 225.47 457.3 230.05 459.01 235.25 460.93 241 463.52 247.09 466.56 253.67 470.17 260.63 474.69 267.85 479.92 275.37 485.89 283.11 492.77 291.01 500.31 299.07 508.39 307.21 517.02 315.43 525.86 323.7 534.63 331.94 543.27 340.23 551.31 348.48 558.43 356.65 564.61 364.84 569.34 372.93 572.37 380.89 573.91 388.85 573.52 396.68 571.16 404.32 567.33 411.97 561.88 419.23 555.15 426.11 547.7 432.97 539.58 439.43 531.15 445.47 522.93 451.48 514.98 457.07 507.54 462.22 501 467.35 495.28 472.06 490.45 476.37 485.36 482.7 480.54 493.96 480.05 499.25 480.59 504.92 481.29 517.56 480.63 525.07 479.84 530.87 478.36 537.18 476.16 544.04 473.63 551.59 470.36 559.66 466.38 568.2 462.06 577.2 457.09 586.43 451.54 595.71 445.72 604.96 439.4 613.84 432.68 622.07 425.79 629.61 418.58 636.04 411.13 641.1 403.59 644.89 395.87 647.01 388.05 647.32 380.19 646.22 372.26 643.38 364.3 638.92 356.33 633.5 348.36 626.94 340.39 619.56 332.43 612.21 324.66 604.94 317.08 598.12 309.49 592.28 302.08 587.36 294.83 583.5 287.53 581.06 280.37 579.73 273.33 579.41 266.22 580.33 259.18 581.95 252.22 584.03 245.15 586.78 238.12 589.52 231.12 592.02 223.98 594.51 216.86 596.35 209.75 597.39 202.52 597.93 195.31 597.46 188.15 595.93 180.91 593.71 173.76 590.43 166.75 586.15 159.77 581.22 153 575.42 146.52 568.89 140.2 561.87 134.25 554.28 128.77 546.28 123.59 537.99 118.96 529.44 114.94 520.73 111.31 511.9 108.34 503.02 106.07 494.18 104.19 485.32 102.96 476.54 102.4 467.9 102.09 459.27 102.33 450.8 103.06 442.49 103.82 434.22 104.9 426.11 106.23 418.19 107.32 410.29 108.49 402.56 109.68 395.02 110.42 387.48 111.07 380.3 111.63 373.48 111.71 366.65 111.76 360.17 111.8 354.05 111.43 344.99 111.46 328.48 112.3 320.96 113.81 313.59 120.03 299.72 124.89 293.01 128.68 288.33 133.08 283.66 138.03 278.96 143.31 273.91 149.09 268.75 155.31 263.45 161.77 257.74 168.58 251.85 175.69 245.78 182.94 239.35 190.41 232.77 198.04 226.1 205.73 219.23 213.53 212.41 221.4 205.76 229.27 199.19 237.19 192.99 245.13 187.32 253.05 182.06 260.98 177.54 268.92 173.9 276.84 170.93 284.77 168.97 292.71 168.09 300.64 167.92 308.59 168.79 316.54 170.64 324.5 172.98 332.47 176.07 340.43 179.77" stroke-dasharray="8 9" transform="rotate(24.24, 320, 400)" opacity="0.12"></path><path d="M336.54 190.77C344.04 194.39 351.28 198.19 358.25 202 365.2 205.41 371.84 208.61 378.16 211.54 387.37 214.79 403.72 218.74 410.73 219.69 422.25 220.23 434.85 223.1 437.76 225.72 440.71 229.32 446.97 240.02 450.88 247.03 454.22 252.21 458.02 257.86 462.36 263.93 467.5 270.24 473.25 276.9 479.6 283.83 486.68 290.93 494.26 298.23 502.21 305.67 510.54 313.21 518.92 320.83 527.1 328.48 535.07 336.19 542.39 343.89 548.79 351.53 554.3 359.2 558.46 366.79 561.06 374.26 562.33 381.75 561.87 389.1 559.62 396.27 556.08 403.44 551.07 410.26 544.87 416.71 538 423.15 530.46 429.22 522.56 434.91 514.77 440.6 507.11 445.91 499.82 450.86 493.24 455.82 487.31 460.44 482.12 464.76 476.18 471.23 469.19 483.41 467.59 489.47 467.16 496.05 466.76 510.82 466.04 519.4 465.4 525.81 464.24 532.67 462.5 539.98 460.55 547.81 457.97 556.02 454.77 564.53 451.31 573.31 447.24 582.15 442.61 590.87 437.75 599.42 432.4 607.48 426.61 614.81 420.65 621.43 414.33 626.93 407.7 631.12 400.99 634.15 394.03 635.64 386.88 635.5 379.69 634.13 372.36 631.21 364.91 626.85 357.47 621.68 349.93 615.49 342.33 608.57 334.73 601.66 327.25 594.8 319.89 588.29 312.52 582.62 305.26 577.72 298.11 573.72 290.93 570.96 283.82 569.17 276.8 568.29 269.71 568.56 262.67 569.51 255.68 570.94 248.61 573.08 241.56 575.33 234.53 577.48 227.41 579.78 220.31 581.62 213.24 582.86 206.1 583.8 199.01 583.91 192 583.14 184.98 581.83 178.09 579.58 171.38 576.44 164.75 572.72 158.37 568.18 152.32 562.89 146.46 557.14 141.01 550.78 136.03 543.93 131.36 536.77 127.24 529.25 123.72 521.48 120.56 513.55 118.03 505.47 116.16 497.33 114.62 489.12 113.7 480.91 113.38 472.77 113.27 464.62 113.66 456.56 114.49 448.64 115.32 440.72 116.43 432.95 117.77 425.34 118.87 417.75 120.04 410.31 121.22 403.07 121.97 395.82 122.64 388.92 123.22 382.36 123.34 375.78 123.42 369.54 123.49 363.62 123.14 354.84 122.99 338.66 123.59 331.14 124.7 323.68 129.76 309.29 133.86 302.15 137.09 297.15 140.89 292.13 145.23 287.05 149.87 281.65 155.01 276.13 160.6 270.47 166.43 264.48 172.65 258.34 179.18 252.07 185.89 245.53 192.85 238.92 200.01 232.31 207.27 225.58 214.67 219 222.17 212.65 229.71 206.46 237.32 200.69 244.97 195.49 252.62 190.71 260.3 186.69 267.98 183.51 275.65 180.97 283.32 179.38 290.98 178.79 298.63 178.85 306.26 179.86 313.86 181.78 321.46 184.12 329.03 187.16 336.53 190.77" stroke-dasharray="3 6" transform="rotate(28.28, 320, 400)" opacity="0.31"></path><path d="M331.01 201.77C338.03 205.28 344.76 208.97 351.19 212.7 357.6 216.07 363.68 219.29 369.43 222.27 377.8 225.73 392.54 230.33 398.86 231.64 409.48 232.62 421.98 235.08 425.36 237.13 428.99 239.93 437.1 248.52 442.08 254.31 446.09 258.6 450.54 263.37 455.47 268.55 461.07 273.96 467.17 279.73 473.74 285.8 480.88 292.05 488.37 298.53 496.06 305.19 503.99 311.96 511.84 318.86 519.41 325.83 526.69 332.87 533.29 339.94 539 346.99 543.87 354.07 547.5 361.11 549.71 368.06 550.74 375.03 550.21 381.89 548.08 388.6 544.81 395.32 540.22 401.73 534.54 407.82 528.23 413.91 521.26 419.67 513.9 425.13 506.57 430.59 499.26 435.75 492.18 440.63 485.66 445.55 479.63 450.23 474.19 454.7 467.59 461.48 458.68 474.83 456.03 481.7 454.6 489.16 452.76 505.76 451.73 515.16 451.03 522 449.96 529.2 448.45 536.73 446.85 544.62 444.73 552.76 442.08 561.03 439.26 569.41 435.9 577.71 432.03 585.76 427.98 593.52 423.45 600.71 418.47 607.13 413.36 612.83 407.86 617.45 402.01 620.83 396.08 623.17 389.86 624.1 383.38 623.57 376.87 621.97 370.15 619.01 363.25 614.79 356.34 609.87 349.27 604.05 342.08 597.57 334.88 591.11 327.73 584.65 320.63 578.46 313.54 572.99 306.48 568.14 299.49 564.05 292.47 561.04 285.49 558.86 278.55 557.49 271.57 557.16 264.61 557.47 257.67 558.27 250.69 559.78 243.72 561.49 236.77 563.21 229.78 565.19 222.82 566.88 215.91 568.14 208.98 569.27 202.13 569.75 195.4 569.51 188.7 568.9 182.17 567.49 175.86 565.28 169.67 562.61 163.77 559.18 158.21 555.04 152.88 550.48 147.96 545.3 143.52 539.6 139.38 533.59 135.78 527.17 132.75 520.42 130.06 513.47 127.95 506.3 126.45 498.99 125.25 491.57 124.61 484.08 124.51 476.58 124.58 469.04 125.09 461.52 125.99 454.08 126.87 446.64 128.01 439.29 129.34 432.06 130.43 424.84 131.59 417.74 132.76 410.79 133.52 403.85 134.2 397.21 134.8 390.87 135.03 381.49 134.89 364.06 134.79 355.94 134.64 347.93 135.85 332.64 137.49 325.2 139.87 317.56 147.58 301.99 152.92 293.9 156.93 288.2 161.42 282.4 166.34 276.49 171.52 270.32 177.08 264.04 182.98 257.7 189.07 251.18 195.43 244.66 202.02 238.21 208.74 231.74 215.63 225.48 222.64 219.51 229.73 213.76 236.92 208.48 244.15 203.77 251.42 199.51 258.73 195.97 266.03 193.26 273.35 191.13 280.67 189.9 287.95 189.58 295.24 189.85 302.49 190.98 309.68 192.95 316.87 195.28 323.99 198.26 331 201.76" stroke-dasharray="10 3" transform="rotate(32.32, 320, 400)" opacity="0.94"></path><path d="M324.41 212.76C330.93 216.16 337.17 219.74 343.09 223.37 349.01 226.69 354.6 229.89 359.86 232.91 367.54 236.55 381.09 241.75 386.96 243.42 397.21 244.97 410.29 247.43 414.28 249.09 418.67 251.27 428.59 258.12 434.5 262.83 439.07 266.34 444.03 270.29 449.39 274.64 455.29 279.19 461.59 284.1 468.23 289.33 475.28 294.71 482.54 300.36 489.88 306.22 497.33 312.19 504.61 318.33 511.52 324.58 518.11 330.9 524.02 337.29 529.06 343.71 533.34 350.16 536.47 356.62 538.32 363.04 539.13 369.47 538.55 375.84 536.55 382.12 533.54 388.4 529.35 394.44 524.16 400.22 518.4 406.01 511.99 411.55 505.18 416.85 498.32 422.17 491.4 427.28 484.6 432.19 478.22 437.15 472.2 441.97 466.62 446.66 461.72 451.46 457.34 456.22 453.5 460.96 449.03 468.39 442.99 484.21 440.95 492.83 440.02 498.99 439.06 505.43 437.99 512.14 437.08 519.2 435.91 526.51 434.43 534.04 432.96 541.79 431.08 549.65 428.77 557.51 426.38 565.35 423.53 572.98 420.22 580.26 416.79 587.18 412.92 593.49 408.63 599.01 401.84 605.71 386.3 612.16 377.7 611.53 371.83 609.76 365.71 606.8 359.35 602.72 352.99 598.07 346.42 592.63 339.66 586.58 332.9 580.55 326.12 574.49 319.35 568.63 312.57 563.37 305.79 558.62 299.02 554.49 292.24 551.28 285.46 548.78 278.69 546.99 271.91 546.12 265.13 545.84 258.36 546.04 251.57 546.93 244.8 548.06 238.06 549.29 231.31 550.86 224.61 552.28 217.98 553.41 211.38 554.54 204.88 555.19 198.53 555.29 192.27 555.14 186.19 554.34 180.37 552.87 174.69 551.05 169.33 548.55 164.32 545.4 159.55 541.9 155.2 537.81 151.31 533.19 147.72 528.28 144.63 522.93 142.08 517.2 139.84 511.28 138.13 505.07 136.99 498.65 136.08 492.11 135.69 485.42 135.78 478.64 136 471.81 136.61 464.94 137.57 458.07 138.48 451.18 139.62 444.33 140.93 437.54 142.01 430.74 143.15 424.02 144.29 417.4 145.06 410.78 145.76 404.4 146.38 398.27 146.69 389.17 146.68 372.01 146.6 363.88 146.42 355.8 147.23 340.09 148.51 332.31 149.6 326.99 151.14 321.66 153.14 316.32 155.34 310.77 158.03 305.17 161.18 299.49 164.57 293.6 168.42 287.63 172.69 281.58 177.19 275.35 182.07 269.07 187.3 262.78 192.71 256.4 198.42 250.08 204.37 243.91 210.46 237.79 216.75 231.93 223.19 226.42 229.73 221.16 236.38 216.4 243.1 212.22 249.88 208.47 256.71 205.42 263.55 203.15 270.42 201.43 277.29 200.52 284.12 200.46 290.97 200.92 297.77 202.16 304.5 204.15 311.23 206.47 317.88 209.37 324.4 212.76" stroke-dasharray="4 5" transform="rotate(36.36, 320, 400)" opacity="0.65"></path><path d="M317.37 223.76C323.41 227.03 329.17 230.48 334.65 234 340.12 237.25 345.29 240.43 350.16 243.46 359.87 248.15 368.36 251.98 375.68 255.01 383.08 256.36 389.56 257.57 395.39 259.07 401.87 260.08 408.35 262.2 415.26 265.69 423.68 269.59 433.21 275.15 444 282.24 456.47 289.94 469.91 299 483.61 309.07 497.31 319.53 509.54 330.7 518.98 342.25 522.69 348.07 525.37 353.94 526.89 359.82 527.51 365.72 526.89 371.62 525.01 377.49 522.26 383.36 518.44 389.06 513.73 394.58 508.49 400.11 502.64 405.48 496.37 410.69 483.7 421.18 471.03 431.21 459.35 440.96 449.82 451.17 441.99 461.55 435.75 472.35 431.64 484.11 428.3 496.68 425.12 510.07 422.79 524.37 419.66 539.16 415.36 553.78 410.97 567.94 405.04 580.52 397.58 590.4 389.83 597.64 380.63 600.8 370.18 599.4 364.9 597.51 359.34 594.57 353.52 590.67 347.69 586.29 341.62 581.21 335.32 575.58 329.02 569.97 322.66 564.31 316.25 558.79 309.85 553.77 303.4 549.15 296.94 545.03 284.01 539.19 270.98 535.71 258.01 534.28 245.06 535.45 232.21 537.28 219.71 538.86 207.44 540.85 195.77 541.2 185.07 539.49 175.06 536.84 166.4 531.84 159.47 524.74 153.6 516.68 149.65 506.94 147.75 496 146.66 484.6 147.22 472.46 149.21 459.99 150.14 453.72 151.27 447.42 152.55 441.1 153.6 434.79 154.71 428.48 155.83 422.2 156.6 415.93 157.31 409.82 157.95 403.9 158.22 397.96 158.44 392.19 158.63 386.57 158.14 375.25 157.98 364.38 158.46 353.86 158.75 342.95 160.36 332.09 163.46 321.16 167.18 309.61 172.66 297.81 179.73 285.85 187.62 273.46 196.93 261.19 207.34 249.52 218.31 238.32 230.07 228.54 242.26 220.85 254.73 214.82 267.42 211.58 280.04 211.43 286.39 212.05 292.7 213.38 298.93 215.39 305.17 217.67 311.33 220.48 317.36 223.75" stroke-dasharray="8 1" transform="rotate(40.400000000000006, 320, 400)" opacity="0.60"></path><path d="M310.59 234.75C321.73 240.95 331.89 247.54 341.04 253.91 350.16 258.77 358.32 262.92 365.57 266.36 373.01 268.24 379.84 269.89 386.31 271.66 393.47 272.76 400.84 274.69 408.72 277.68 417.92 280.82 428.06 285.37 439.17 291.28 451.51 297.61 464.41 305.23 477.17 313.9 489.66 322.87 500.55 332.66 508.75 342.99 514.46 353.42 516.18 364.22 513.47 375.19 507.77 386.16 498.71 396.77 487.47 407 475.76 417.35 463.75 427.54 452.34 437.68 442.58 448.25 434.14 459.15 427.04 470.5 421.81 482.58 417.39 495.34 413.33 508.63 410.22 522.43 406.67 536.33 402.31 549.68 398.08 562.29 392.63 573.14 385.89 581.31 378.99 587.06 370.77 589.13 361.33 587.18 351.78 582.67 341.12 574.86 329.47 564.59 317.83 554.36 305.81 544.37 293.63 535.66 281.49 529.54 269.21 525.37 256.99 523 244.88 523.02 232.93 523.81 221.39 524.66 210.19 526.21 199.66 526.6 190.16 525.43 181.35 523.72 173.88 520.03 168.07 514.46 163.19 508.14 160.06 500.18 158.76 490.92 158.1 481.24 158.89 470.64 160.93 459.45 162.65 448.17 164.89 436.51 167.37 424.7 168.55 412.89 169.54 401.47 170.35 390.46 170.01 379.35 169.93 368.47 170.37 357.78 170.49 346.77 171.73 335.7 174.22 324.55 177.16 312.97 181.63 301.22 187.56 289.48 194.16 277.55 202.12 265.96 211.17 255.16 220.74 244.99 231.15 236.32 242.08 229.71 253.29 224.66 264.8 222.18 276.32 222.5 287.95 224.36 299.45 228.57 310.58 234.74" stroke-dasharray="6 0" transform="rotate(44.44, 320, 400)" opacity="0.72"></path><path d="M304.73 245.74C314.98 251.67 324.45 258.03 333.12 264.27 341.81 269.23 349.78 273.65 357.12 277.45 364.69 279.84 371.93 281.95 379.04 284.07 386.82 285.42 394.91 287.35 403.52 290.09 413.2 292.76 423.64 296.58 434.75 301.57 446.68 306.8 458.82 313.22 470.53 320.67 481.75 328.33 491.33 336.87 498.37 346.1 503.21 355.39 504.52 365.22 501.94 375.46 496.8 385.71 488.65 395.88 478.48 405.94 467.74 416.1 456.49 426.35 445.52 436.73 435.76 447.46 426.96 458.58 419.23 470.13 413.1 482.17 407.72 494.7 402.8 507.49 398.86 520.44 394.73 533.16 390.1 545.05 385.75 556.02 380.49 565.16 374.19 571.73 367.86 576.13 360.38 577.26 351.79 574.88 343.13 570.4 333.4 563.08 322.7 553.59 312 544.15 300.9 534.78 289.61 526.37 278.37 520.09 267.01 515.39 255.74 512.21 244.63 511.18 233.74 510.95 223.35 510.97 213.33 511.87 204.03 512.03 195.78 511.05 188.19 509.86 181.9 507.07 177.14 502.67 173.17 497.74 170.78 491.27 170.01 483.5 169.7 475.38 170.66 466.23 172.7 456.3 174.38 446.27 176.53 435.66 178.9 424.63 180.1 413.61 181.15 402.7 182.06 391.98 181.88 381.18 181.92 370.43 182.36 359.73 182.41 348.8 183.38 337.77 185.4 326.67 187.68 315.31 191.3 303.9 196.21 292.65 201.63 281.44 208.33 270.73 216.07 260.95 224.26 251.9 233.31 244.37 242.95 238.83 252.84 234.71 263.12 232.93 273.52 233.67 284.01 235.71 294.49 239.84 304.73 245.74" stroke-dasharray="0 4" transform="rotate(48.48, 320, 400)" opacity="0.22"></path><path d="M300.37 256.74C309.78 262.37 318.64 268.46 326.93 274.53 335.27 279.54 343.14 284.15 350.62 288.26 358.35 291.11 365.97 293.7 373.61 296.2 381.84 297.91 390.44 300.01 399.48 302.69 409.35 305.14 419.77 308.51 430.57 312.85 441.87 317.27 453.08 322.75 463.64 329.21 473.58 335.78 481.89 343.25 487.86 351.49 491.89 359.77 492.84 368.73 490.4 378.28 485.79 387.84 478.52 397.55 469.38 407.35 459.64 417.25 449.23 427.4 438.83 437.77 429.28 448.41 420.36 459.44 412.26 470.79 405.44 482.44 399.3 494.36 393.63 506.28 388.87 518.1 384.11 529.45 379.1 539.76 374.45 549.07 369.17 556.57 363.1 561.65 357.09 564.86 350.14 565.2 342.24 562.51 334.31 558.12 325.43 551.31 315.66 542.6 305.89 533.92 295.76 525.2 285.45 517.15 275.22 510.83 264.9 505.74 254.73 501.91 244.74 499.95 235.04 498.76 225.88 497.93 217.1 498.06 209.08 497.76 202.09 496.68 193.1 494.52 182.7 483.23 181.49 474.05 181.47 467.27 182.54 459.4 184.53 450.64 186.15 441.8 188.18 432.21 190.44 422.01 191.64 411.81 192.75 401.51 193.74 391.2 193.74 380.84 193.92 370.39 194.43 359.9 194.48 349.28 195.27 338.53 196.95 327.77 198.72 316.91 201.63 306.11 205.67 295.61 210.07 285.32 215.62 275.65 222.15 267.01 229.05 259.14 236.8 252.75 245.17 248.24 253.77 244.99 262.83 243.84 272.11 244.93 281.48 247.1 290.96 251.13 300.37 256.74" stroke-dasharray="1 4" transform="rotate(52.52, 320, 400)" opacity="0.64"></path><path d="M297.93 267.73C306.56 273.05 314.88 278.84 322.84 284.7 330.86 289.68 338.64 294.4 346.24 298.75 354.07 302.01 361.94 305.03 369.93 307.94 378.41 310.06 387.22 312.43 396.39 315.21 406.14 317.66 416.24 320.81 426.48 324.75 436.93 328.65 447.08 333.45 456.44 339.14 465.11 344.87 472.22 351.48 477.2 358.88 480.52 366.29 481.15 374.47 478.86 383.36 474.76 392.24 468.32 401.44 460.18 410.88 451.43 420.38 441.92 430.22 432.21 440.33 423.06 450.59 414.26 461.19 406.03 472 398.79 482.91 392.09 493.91 385.84 504.68 380.39 515.17 375.04 525 369.62 533.69 364.59 541.39 359.15 547.34 353.18 551.1 347.31 553.28 340.72 552.97 333.39 550.08 326.05 545.85 317.93 539.55 309.05 531.61 300.18 523.69 291.02 515.62 281.76 507.99 272.58 501.75 263.38 496.42 254.39 492.09 245.59 489.35 237.13 487.3 229.26 485.65 218.35 484.52 201.82 480.49 196.82 476.31 193.8 470.84 193.94 453.94 196.41 442.84 197.94 435.06 199.84 426.45 201.98 417.1 203.17 407.76 204.32 398.14 205.4 388.39 205.58 378.62 205.92 368.66 206.51 358.62 206.63 348.54 207.36 338.35 208.8 328.2 210.2 318.1 212.57 308.15 215.89 298.61 219.44 289.4 224.01 280.9 229.48 273.45 235.21 266.76 241.77 261.5 248.97 257.95 256.35 255.5 264.24 254.92 272.47 256.28 280.76 258.54 289.3 262.43 297.93 267.73" stroke-dasharray="2 11" transform="rotate(56.56, 320, 400)" opacity="0.95"></path><path d="M297.65 278.73C305.56 283.71 313.35 289.17 320.99 294.76 328.68 299.66 336.32 304.42 343.93 308.91 351.74 312.5 359.69 315.89 367.79 319.17 376.25 321.73 385 324.43 393.99 327.41 403.34 330.01 412.86 333.14 422.3 336.88 431.76 340.49 440.78 344.86 448.91 350.01 456.35 355.12 462.34 361.05 466.41 367.75 469.08 374.45 469.45 381.92 467.33 390.15 463.7 398.38 458.05 407.01 450.87 415.93 443.1 424.89 434.52 434.21 425.61 443.76 417.02 453.39 408.54 463.27 400.42 473.21 393.03 483.12 386.02 492.94 379.39 502.36 373.43 511.39 367.61 519.66 361.83 526.75 356.44 532.93 350.81 537.49 344.85 540.09 339.03 541.4 332.71 540.58 325.84 537.6 318.99 533.58 311.53 527.81 303.51 520.61 295.48 513.44 287.3 506.04 279.11 498.89 270.98 492.82 262.93 487.4 255.15 482.74 247.54 479.38 240.33 476.6 233.71 474.21 224.61 471.95 211.25 466.8 207.45 462.78 205.24 457.91 205.98 443.22 208.34 433.46 209.75 426.61 211.52 418.91 213.51 410.42 214.69 401.94 215.87 393.1 217.02 384.05 217.38 375 217.88 365.73 218.6 356.38 218.84 347.05 219.56 337.65 220.87 328.37 222.05 319.22 224.02 310.32 226.8 301.91 229.68 293.89 233.44 286.61 238.01 280.37 242.75 274.85 248.26 270.65 254.42 267.99 260.69 266.26 267.53 266.15 274.79 267.74 282.09 270.04 289.74 273.76 297.65 278.73" stroke-dasharray="1 11" transform="rotate(60.599999999999994, 320, 400)" opacity="0.56"></path><path d="M299.56 289.72C306.78 294.35 314.05 299.45 321.32 304.73 328.64 309.48 336.04 314.18 343.51 318.73 351.13 322.54 358.93 326.23 366.87 329.81 375.07 332.77 383.47 335.81 391.99 339.04 400.69 341.88 409.41 345.11 417.89 348.8 426.26 352.32 434.09 356.44 441.01 361.21 447.28 365.92 452.23 371.33 455.49 377.46 457.6 383.57 457.75 390.41 455.79 397.98 452.61 405.55 447.7 413.52 441.43 421.78 434.63 430.06 427.01 438.65 418.96 447.41 411.06 456.18 403.1 465.07 395.3 473.91 388.01 482.62 380.95 491.1 374.19 499.06 367.93 506.6 361.83 513.33 355.83 518.91 350.15 523.69 344.38 527.02 338.44 528.65 332.65 529.25 326.54 528.06 320.08 525.08 313.65 521.31 306.81 516.08 299.58 509.62 292.36 503.17 285.11 496.45 277.96 489.84 270.86 484.03 263.93 478.66 257.33 473.82 250.86 470.03 244.83 466.68 239.4 463.68 226.66 457.13 217 445.08 217.18 438.9 217.58 434.5 218.65 429.27 220.3 423.22 221.59 417.15 223.2 410.28 225.05 402.66 226.2 395.03 227.39 387.04 228.6 378.81 229.12 370.61 229.78 362.2 230.63 353.74 231.02 345.33 231.81 336.93 233.07 328.71 234.14 320.66 235.85 312.93 238.24 305.75 240.62 298.96 243.76 292.92 247.61 287.88 253.87 281.85 269.74 277.41 279.08 279.29 285.49 281.59 292.34 285.11 299.56 289.72" stroke-dasharray="7 10" transform="rotate(64.64, 320, 400)" opacity="0.97"></path><path d="M303.47 300.72C310.04 304.97 316.76 309.68 323.58 314.6 330.45 319.13 337.47 323.7 344.6 328.2 351.85 332.13 359.27 336 366.81 339.8 374.49 343.08 382.29 346.42 390.09 349.89 397.95 352.99 405.7 356.37 413.12 360.1 420.33 363.63 426.97 367.64 432.73 372.16 437.9 376.6 441.89 381.62 444.44 387.26 446.06 392.86 446.03 399.11 444.25 406.01 441.5 412.9 437.28 420.14 431.89 427.6 426.01 435.08 419.35 442.77 412.22 450.54 405.11 458.28 397.81 466.03 390.53 473.6 383.57 481.01 376.72 488.07 370.06 494.56 363.76 500.65 357.59 505.92 351.53 510.14 345.74 513.68 339.94 515.96 334.09 516.8 328.36 516.85 322.48 515.43 316.42 512.53 310.39 509.06 304.13 504.36 297.66 498.62 291.19 492.9 284.82 486.86 278.66 480.82 272.52 475.37 266.64 470.16 261.14 465.31 253.25 459.4 240.39 449.92 235.76 445.77 230.61 437.5 230.33 420.71 232.3 412.93 233.45 407.51 234.89 401.4 236.59 394.62 237.69 387.84 238.88 380.73 240.13 373.43 240.79 366.16 241.6 358.74 242.59 351.31 243.15 343.96 244.04 336.67 245.31 329.63 246.37 322.78 247.94 316.29 250.06 310.37 253.46 302.38 263.38 291.46 269.88 289.11 274.43 288.52 279.54 289.12 285.17 290.95 290.79 293.19 296.91 296.47 303.47 300.72" stroke-dasharray="4 10" transform="rotate(68.68, 320, 400)" opacity="0.22"></path><path d="M309 311.71C320.83 319.32 333.59 328.24 346.75 337.32 360.18 344.71 374.22 352.17 388.01 359.75 401.69 366.09 414.26 373.49 424.04 382.24 431.82 390.64 435.12 401.01 432.71 413.41 427.35 425.8 417.56 439.16 405.34 452.54 392.87 465.69 379.65 478.23 366.78 488.73 354.87 497.81 343.15 503.51 331.75 504.59 320.77 503.37 309.43 497.55 297.92 487.63 286.41 477.75 275.78 467.13 266.65 457.18 257.76 449.56 250.79 442.57 246.33 435.89 242.3 430.62 240.77 424.3 241.78 416.45 242.4 408.83 244.63 399.05 248.13 387.13 249.7 375.22 251.82 362.4 254.42 349.68 255.54 337.31 258.01 325.65 262.06 315.94 265.7 307.45 271.5 301.87 279.38 300.19 287.22 300.24 297.17 304.14 309 311.71" stroke-dasharray="5 1" transform="rotate(72.72, 320, 400)" opacity="0.07"></path><path d="M315.61 322.71C326.13 329.52 337.58 337.63 349.4 346.1 361.34 353.37 373.65 360.88 385.46 368.5 396.96 375.16 407.24 382.59 414.93 390.94 421.02 398.98 423.41 408.48 421.18 419.42 416.73 430.36 408.58 441.77 398.25 452.85 387.52 463.68 375.81 473.59 364.12 481.48 352.98 488.23 341.91 492.04 331.24 492.06 320.87 490.48 310.47 485.23 300.34 476.63 290.21 468.07 281.23 458.6 273.8 449.37 266.5 441.76 260.97 434.46 257.6 427.42 254.41 421.52 253.29 414.95 254.24 407.41 254.72 400.13 256.59 391.31 259.66 380.99 261.2 370.66 263.39 359.86 266.08 349.41 267.56 339.27 270.15 330.01 274.03 322.61 277.43 316.18 282.6 312.28 289.53 311.62 296.36 312.19 305.09 315.92 315.61 322.71" stroke-dasharray="6 4" transform="rotate(76.76, 320, 400)" opacity="0.44"></path><path d="M322.65 333.7C331.82 339.68 341.78 346.88 351.97 354.54 362.18 361.43 372.52 368.68 382.2 376.06 391.51 382.75 399.59 390.01 405.42 397.84 410.02 405.42 411.66 413.98 409.64 423.42 406.03 432.85 399.42 442.29 390.93 451.11 382 459.69 372 467.2 361.8 472.82 351.85 477.62 341.84 479.94 332.21 479.25 322.76 477.53 313.47 472.93 304.69 465.64 295.91 458.37 288.4 450.14 282.38 441.84 276.4 434.6 272.02 427.4 269.44 420.37 266.86 414.17 265.96 407.55 266.74 400.41 267.06 393.5 268.57 385.61 271.2 376.81 272.67 368.01 274.84 359.17 277.55 350.9 279.3 342.87 282.01 335.82 285.74 330.47 289.03 325.81 293.73 323.28 299.86 323.39 305.86 324.29 313.47 327.75 322.65 333.7" stroke-dasharray="7 1" transform="rotate(80.80000000000001, 320, 400)" opacity="0.21"></path><path d="M329.42 344.7C337.19 349.78 345.5 355.97 353.88 362.67 362.23 368.91 370.49 375.58 378.03 382.4 385.23 388.79 391.3 395.59 395.49 402.68 398.83 409.61 399.86 417.1 398.1 424.98 395.26 432.86 390.08 440.38 383.34 447.09 376.21 453.63 368.04 459.05 359.54 462.82 351.1 466.05 342.49 467.3 334.18 466.23 325.97 464.54 317.96 460.64 310.54 454.64 303.12 448.66 296.92 441.73 292.07 434.55 287.21 428 283.7 421.29 281.65 414.66 279.51 408.57 278.71 402.22 279.25 395.66 279.39 389.27 280.55 382.35 282.74 375.04 284.08 367.73 286.16 360.72 288.78 354.44 292.07 345.76 302.32 335.61 309.85 335.47 315.12 336.55 321.66 339.62 329.42 344.7" stroke-dasharray="7 8" transform="rotate(84.84, 320, 400)" opacity="0.86"></path><path d="M335.28 355.69C347.87 363.88 361.56 375.49 372.81 387.58 383.03 398.73 388.77 411.36 386.57 423.95 381.67 436.54 370.35 446.61 357.06 451.64 343.65 455.46 329.39 452.99 317.32 443.65 305.24 434.35 297.29 422.14 294.01 410.16 290.27 399.4 290.31 387.57 294.27 375.86 296.06 364.14 300.79 354.69 307.58 349.8 313.32 345.86 322.68 347.54 335.28 355.69" stroke-dasharray="10 10" transform="rotate(88.88, 320, 400)" opacity="0.36"></path><path d="M339.63 366.69C349.17 372.99 358.9 382.1 366.44 391.7 373.33 400.91 376.91 411.05 375.03 420.44 371.67 429.83 363.71 436.61 354.11 439.46 344.29 441.76 333.56 439.61 324.35 432.65 315.14 425.72 309.01 416.25 306.3 406.67 303.21 397.67 302.94 388.01 305.81 379.18 307.41 370.35 311.57 363.94 317.33 361.13 322.46 358.73 330.09 360.4 339.63 366.69" stroke-dasharray="6 0" transform="rotate(92.92, 320, 400)" opacity="0.48"></path><path d="M342.07 377.68C354.86 386.16 365.59 402.38 363.49 414.81 358.83 427.23 343.43 430.71 330.96 421.66 318.49 412.64 313.15 396.54 317.35 384.67 319.23 372.79 329.26 369.24 342.07 377.68" stroke-dasharray="1 8" transform="rotate(96.96, 320, 400)" opacity="0.64"></path></g></svg>