<svg width="44" height="54" viewBox="0 0 44 54" fill="none" xmlns="http://www.w3.org/2000/svg">
<path d="M7.65625 14.6354C8.69271 14.6354 9.53125 13.7969 9.53125 12.7604V1.875C9.53125 0.838542 8.69271 0 7.65625 0C6.61979 0 5.78125 0.838542 5.78125 1.875V12.7604C5.78125 13.7969 6.61979 14.6354 7.65625 14.6354ZM39.5833 22.1354H33.3333C33.3333 20.0625 31.6562 18.3854 29.5833 18.3854H3.75C1.67708 18.3854 0 20.0625 0 22.1354V35.0521C0 35.2292 0.0104165 35.401 0.0364582 35.5677C0.0104165 35.9323 0 36.2969 0 36.6667C0 45.8698 7.46354 53.3333 16.6667 53.3333C25.0052 53.3333 31.9115 47.2135 33.1406 39.2187H39.5833C41.6562 39.2187 43.3333 37.5417 43.3333 35.4687V25.8854C43.3333 23.8125 41.6562 22.1354 39.5833 22.1354ZM29.5833 35.4687H29.526C29.5625 35.8646 29.5833 36.2604 29.5833 36.6667C29.5833 43.8021 23.8021 49.5833 16.6667 49.5833C9.53125 49.5833 3.75 43.8021 3.75 36.6667C3.75 36.2604 3.77083 35.8646 3.80729 35.4687H3.75V22.1354H29.5833V35.4687ZM39.5833 35.0521H33.75V25.8854H39.5833V35.0521ZM25.2604 14.6354C26.2969 14.6354 27.1354 13.7969 27.1354 12.7604V1.875C27.1354 0.838542 26.2969 0 25.2604 0C24.224 0 23.3854 0.838542 23.3854 1.875V12.7604C23.3854 13.7969 24.224 14.6354 25.2604 14.6354ZM16.4062 14.6354C17.4427 14.6354 18.2812 13.7969 18.2812 12.7604V1.875C18.2812 0.838542 17.4427 0 16.4062 0C15.3698 0 14.5312 0.838542 14.5312 1.875V12.7604C14.5312 13.7969 15.3698 14.6354 16.4062 14.6354Z" fill="black"/>
</svg>
