<svg width="47" height="31" viewBox="0 0 47 31" fill="none" xmlns="http://www.w3.org/2000/svg">
<path d="M10.625 13.25C10.2047 13.25 9.79387 13.3795 9.44441 13.6222C9.09496 13.8648 8.82259 14.2097 8.66176 14.6132C8.50092 15.0168 8.45884 15.4608 8.54083 15.8892C8.62283 16.3175 8.82521 16.711 9.1224 17.0199C9.41959 17.3287 9.79822 17.539 10.2104 17.6242C10.6226 17.7094 11.0499 17.6657 11.4382 17.4986C11.8265 17.3314 12.1584 17.0484 12.3919 16.6852C12.6254 16.3221 12.75 15.8951 12.75 15.4583C12.75 14.8726 12.5261 14.3109 12.1276 13.8968C11.7291 13.4827 11.1886 13.25 10.625 13.25ZM36.125 13.25C35.7047 13.25 35.2939 13.3795 34.9444 13.6222C34.595 13.8648 34.3226 14.2097 34.1618 14.6132C34.0009 15.0168 33.9588 15.4608 34.0408 15.8892C34.1228 16.3175 34.3252 16.711 34.6224 17.0199C34.9196 17.3287 35.2982 17.539 35.7104 17.6242C36.1226 17.7094 36.5499 17.6657 36.9382 17.4986C37.3265 17.3314 37.6584 17.0484 37.8919 16.6852C38.1254 16.3221 38.25 15.8951 38.25 15.4583C38.25 14.8726 38.0261 14.3109 37.6276 13.8968C37.2291 13.4827 36.6886 13.25 36.125 13.25ZM40.375 0H6.375C4.68425 0 3.06274 0.697989 1.86719 1.94042C0.67165 3.18285 0 4.86794 0 6.625V24.2917C0 26.0487 0.67165 27.7338 1.86719 28.9762C3.06274 30.2187 4.68425 30.9167 6.375 30.9167H40.375C42.0658 30.9167 43.6873 30.2187 44.8828 28.9762C46.0784 27.7338 46.75 26.0487 46.75 24.2917V6.625C46.75 4.86794 46.0784 3.18285 44.8828 1.94042C43.6873 0.697989 42.0658 0 40.375 0ZM42.5 24.2917C42.5 24.8774 42.2761 25.4391 41.8776 25.8532C41.4791 26.2673 40.9386 26.5 40.375 26.5H6.375C5.81142 26.5 5.27091 26.2673 4.8724 25.8532C4.47388 25.4391 4.25 24.8774 4.25 24.2917V6.625C4.25 6.03931 4.47388 5.47762 4.8724 5.06347C5.27091 4.64933 5.81142 4.41667 6.375 4.41667H40.375C40.9386 4.41667 41.4791 4.64933 41.8776 5.06347C42.2761 5.47762 42.5 6.03931 42.5 6.625V24.2917ZM23.375 8.83333C22.1141 8.83333 20.8816 9.22188 19.8332 9.94985C18.7849 10.6778 17.9678 11.7125 17.4853 12.9231C17.0028 14.1336 16.8765 15.4657 17.1225 16.7508C17.3685 18.0359 17.9756 19.2164 18.8672 20.1429C19.7588 21.0694 20.8947 21.7004 22.1313 21.956C23.3679 22.2117 24.6497 22.0805 25.8146 21.579C26.9795 21.0776 27.9751 20.2285 28.6756 19.139C29.3761 18.0495 29.75 16.7686 29.75 15.4583C29.75 13.7013 29.0784 12.0162 27.8828 10.7737C26.6873 9.53132 25.0658 8.83333 23.375 8.83333ZM23.375 17.6667C22.9547 17.6667 22.5439 17.5371 22.1944 17.2945C21.845 17.0518 21.5726 16.7069 21.4118 16.3034C21.2509 15.8999 21.2088 15.4559 21.2908 15.0275C21.3728 14.5991 21.5752 14.2056 21.8724 13.8968C22.1696 13.588 22.5482 13.3776 22.9604 13.2924C23.3726 13.2072 23.7999 13.251 24.1882 13.4181C24.5765 13.5852 24.9084 13.8683 25.1419 14.2314C25.3754 14.5946 25.5 15.0216 25.5 15.4583C25.5 16.044 25.2761 16.6057 24.8776 17.0199C24.4791 17.434 23.9386 17.6667 23.375 17.6667Z" fill="black"/>
</svg>
