<svg width="56" height="57" viewBox="0 0 56 57" fill="none" xmlns="http://www.w3.org/2000/svg">
<path d="M5.7467 2V3.92727" stroke="black" stroke-width="3" stroke-linecap="round" stroke-linejoin="round"/>
<path d="M5.7467 7.78183V9.7091" stroke="black" stroke-width="3" stroke-linecap="round" stroke-linejoin="round"/>
<path d="M2 5.85455H3.87334" stroke="black" stroke-width="3" stroke-linecap="round" stroke-linejoin="round"/>
<path d="M7.62 5.85455H9.49334" stroke="black" stroke-width="3" stroke-linecap="round" stroke-linejoin="round"/>
<path d="M41.8085 9.70908C43.1017 9.70908 44.1502 8.63049 44.1502 7.29999C44.1502 5.96949 43.1017 4.8909 41.8085 4.8909C40.5152 4.8909 39.4668 5.96949 39.4668 7.29999C39.4668 8.63049 40.5152 9.70908 41.8085 9.70908Z" stroke="black" stroke-width="3" stroke-linecap="round" stroke-linejoin="round"/>
<path d="M18.5331 10.7691C18.5331 10.9729 18.4744 11.172 18.3644 11.3414C18.2543 11.5108 18.098 11.6429 17.915 11.7208C17.732 11.7988 17.5307 11.8192 17.3365 11.7794C17.1422 11.7397 16.9638 11.6416 16.8238 11.4975C16.6838 11.3535 16.5884 11.1699 16.5498 10.9701C16.5111 10.7703 16.531 10.5631 16.6067 10.3749C16.6825 10.1867 16.8109 10.0258 16.9755 9.91259C17.1402 9.7994 17.3338 9.73898 17.5318 9.73898C17.7974 9.73898 18.0521 9.84751 18.2398 10.0407C18.4276 10.2339 18.5331 10.4959 18.5331 10.7691Z" fill="black"/>
<path d="M56 12.6964C56 12.9001 55.9413 13.0993 55.8313 13.2687C55.7213 13.4381 55.5649 13.5701 55.3819 13.6481C55.199 13.726 54.9976 13.7464 54.8034 13.7067C54.6092 13.6669 54.4307 13.5688 54.2907 13.4248C54.1507 13.2807 54.0553 13.0971 54.0167 12.8973C53.978 12.6975 53.9979 12.4904 54.0737 12.3021C54.1494 12.1139 54.2778 11.953 54.4424 11.8398C54.6071 11.7266 54.8007 11.6662 54.9987 11.6662C55.2643 11.6662 55.519 11.7748 55.7068 11.9679C55.8945 12.1611 56 12.4232 56 12.6964Z" fill="black"/>
<path d="M32.7452 48.2112L28.2969 52.7837C27.3308 53.7775 26.0205 54.3359 24.6542 54.3359C23.2879 54.3359 21.9776 53.7775 21.0115 52.7837C20.0454 51.7897 19.5027 50.4417 19.5027 49.0361C19.5027 47.6305 20.0454 46.2824 21.0115 45.2885L42.2065 23.4891C43.1726 22.4952 44.4829 21.9369 45.8492 21.9369C47.2155 21.9369 48.5258 22.4952 49.4919 23.4891C50.458 24.483 51.0007 25.8311 51.0007 27.2367C51.0007 28.6423 50.458 29.9903 49.4919 30.9843L41.9817 38.7107" stroke="black" stroke-width="3" stroke-linecap="round" stroke-linejoin="round"/>
<path d="M12.3035 44.2603V54.0364" stroke="black" stroke-width="3" stroke-linecap="round" stroke-linejoin="round"/>
<path d="M8.55676 55H16.0501" stroke="black" stroke-width="3" stroke-linecap="round" stroke-linejoin="round"/>
<path d="M3.26818 30.7472C1.24309 36.7873 5.2202 43.3949 11.4172 43.8103C11.6414 43.8257 11.8678 43.8334 12.0963 43.8334C13.4213 43.8371 14.7343 43.5752 15.9619 43.0625C18.0805 42.1218 19.7931 40.4188 20.7788 38.2724C21.7646 36.126 21.9559 33.6835 21.3169 31.4025L19.1803 23.2H5.72132L3.26818 30.7472Z" stroke="black" stroke-width="3" stroke-linecap="round" stroke-linejoin="round"/>
<path d="M21.1614 30.8127C18.4666 31.6293 15.8933 32.8221 13.5135 34.358C8.7477 37.218 5.09656 36.4124 2.8064 35.1539" stroke="black" stroke-width="3" stroke-linejoin="round"/>
<path d="M38.8776 26.911L45.0868 27.0546" stroke="black" stroke-width="3" stroke-linecap="round" stroke-linejoin="round"/>
<path d="M32.321 33.6565L38.5302 33.8" stroke="black" stroke-width="3" stroke-linecap="round" stroke-linejoin="round"/>
<path d="M25.7643 40.4019L31.0368 40.4732" stroke="black" stroke-width="3" stroke-linecap="round" stroke-linejoin="round"/>
<path d="M20.7371 46.1972L26.3533 46.3273" stroke="black" stroke-width="3" stroke-linecap="round" stroke-linejoin="round"/>
<path d="M32.9102 43.4364L38.5302 37.6546L52.5802 43.4364V54.0364H32.9102V43.4364Z" stroke="black" stroke-width="3" stroke-linecap="round" stroke-linejoin="round"/>
<path d="M32.9102 43.4364H41.3402V48.7364C41.3402 49.1197 41.4882 49.4874 41.7517 49.7585C42.0152 50.0295 42.3726 50.1818 42.7452 50.1818C43.1178 50.1818 43.4752 50.0295 43.7387 49.7585C44.0022 49.4874 44.1502 49.1197 44.1502 48.7364V45.8455C44.1502 46.2288 44.2982 46.5965 44.5617 46.8676C44.8252 47.1386 45.1826 47.2909 45.5552 47.2909C45.9278 47.2909 46.2852 47.1386 46.5487 46.8676C46.8122 46.5965 46.9602 46.2288 46.9602 45.8455V43.4364H52.5802" stroke="black" stroke-width="3" stroke-linejoin="round"/>
</svg>
