<svg width="44" height="41" viewBox="0 0 44 41" fill="none" xmlns="http://www.w3.org/2000/svg">
<path d="M42.4347 20.1348L23.9658 1.67542L22.7279 0.437466C22.4458 0.157262 22.0643 0 21.6668 0C21.2692 0 20.8877 0.157262 20.6057 0.437466L0.898789 20.1348C0.609763 20.4227 0.381342 20.7656 0.227007 21.1432C0.0726721 21.5208 -0.00444816 21.9255 0.000198119 22.3334C0.0193171 24.0159 1.41978 25.359 3.10225 25.359H5.13364V40.9266H38.1999V25.359H40.2743C41.0916 25.359 41.8611 25.0388 42.4395 24.4604C42.7243 24.1766 42.9499 23.839 43.1033 23.4674C43.2568 23.0957 43.3349 22.6973 43.3333 22.2952C43.3333 21.4827 43.0131 20.7131 42.4347 20.1348ZM24.3434 37.4852H18.9901V27.7346H24.3434V37.4852ZM34.7585 21.9176V37.4852H27.4024V26.5874C27.4024 25.5311 26.5469 24.6755 25.4905 24.6755H17.843C16.7866 24.6755 15.9311 25.5311 15.9311 26.5874V37.4852H8.57505V21.9176H3.9865L21.6715 4.24692L22.7757 5.35104L39.3518 21.9176H34.7585Z" fill="black"/>
</svg>
