<svg xmlns="http://www.w3.org/2000/svg" xmlns:xlink="http://www.w3.org/1999/xlink" version="1.1" x="0px" y="0px" viewBox="0 0 48 60" style="enable-background:new 0 0 48 48;" xml:space="preserve"><path d="M40,31L40,31l-8.328-4.76l-1.489-0.617l-5.182,0v12.376h-7c-0.553,0-1,0.448-1,1s0.447,1,1,1h7.734L36.236,46H30  c-0.553,0-1,0.448-1,1s0.447,1,1,1h10c0.553,0,1-0.448,1-1V32C41,31.448,40.553,31,40,31z M39,45.277l-12-6.858V28.57l12,6.858  V45.277z M35.579,13.403l7.251,1.442c1.083,0.216,1.787,1.268,1.571,2.352c-0.215,1.083-1.268,1.787-2.352,1.571  c0,0-6.916-1.374-7.846-1.56c-0.375-0.074-0.733-0.258-1.024-0.549l-1.414-1.414c1.084-1.084,1.666-2.485,1.745-3.908  c0.001,0,0.002,0,0.003,0L35.579,13.403z M18.425,25.599l-2.14,5.167c-0.319,0.77-1.064,1.233-1.849,1.233  C12.183,32,5,31.999,5,31.999c-1.105,0-2-0.896-2-2s0.896-2,2-2l8.1,0.002l1.669-4.03C15.773,24.925,17.051,25.493,18.425,25.599z   M42.347,26.332c-0.423,1.021-1.593,1.505-2.613,1.082l-9.153-3.791l-11.64-0.001c-1.037,0.01-2.077-0.377-2.868-1.168  c-1.562-1.562-1.562-4.095,0-5.657l5.794-5.794h-1.722l-6.147,4.107c-0.918,0.614-2.16,0.367-2.774-0.552  c-0.614-0.918-0.367-2.16,0.552-2.774c0,0,5.729-3.828,6.647-4.441c0.318-0.213,0.705-0.34,1.116-0.34h8  c1.019,0.004,2.037,0.394,2.814,1.172c1.562,1.562,1.562,4.095,0,5.657l-3.793,3.793L21,17.626c-0.553,0-1,0.448-1,1  c0,0.552,0.448,1,1,1l9.995-0.001c0.265,0.002,0.517,0.056,0.748,0.151c1.198,0.496,9.521,3.943,9.521,3.943  C42.285,24.142,42.769,25.312,42.347,26.332z M30.351,8.175c-1.562-1.562-1.562-4.095,0-5.657c1.562-1.562,4.095-1.562,5.657,0  c1.562,1.562,1.562,4.095,0,5.657C34.446,9.737,31.913,9.737,30.351,8.175z"/></svg>