<svg width="181" height="41" viewBox="0 0 181 41" fill="none" xmlns="http://www.w3.org/2000/svg">
<path d="M58 11.644V14.13H51.598V18.068H56.504V20.51H51.598V27H48.518V11.644H58ZM61.746 13.36C61.2033 13.36 60.7487 13.1913 60.382 12.854C60.03 12.502 59.854 12.0693 59.854 11.556C59.854 11.0427 60.03 10.6173 60.382 10.28C60.7487 9.928 61.2033 9.752 61.746 9.752C62.2887 9.752 62.736 9.928 63.088 10.28C63.4547 10.6173 63.638 11.0427 63.638 11.556C63.638 12.0693 63.4547 12.502 63.088 12.854C62.736 13.1913 62.2887 13.36 61.746 13.36ZM63.264 14.812V27H60.184V14.812H63.264ZM73.0611 14.636C74.5131 14.636 75.6864 15.098 76.5811 16.022C77.4757 16.9313 77.9231 18.2073 77.9231 19.85V27H74.8431V20.268C74.8431 19.3 74.6011 18.5593 74.1171 18.046C73.6331 17.518 72.9731 17.254 72.1371 17.254C71.2864 17.254 70.6117 17.518 70.1131 18.046C69.6291 18.5593 69.3871 19.3 69.3871 20.268V27H66.3071V14.812H69.3871V16.33C69.7977 15.802 70.3184 15.3913 70.9491 15.098C71.5944 14.79 72.2984 14.636 73.0611 14.636Z" fill="#1CE8A8"/>
<path d="M89.564 19.124C90.4293 19.2853 91.1407 19.718 91.698 20.422C92.2553 21.126 92.534 21.9327 92.534 22.842C92.534 23.6633 92.3287 24.3893 91.918 25.02C91.522 25.636 90.9427 26.12 90.18 26.472C89.4173 26.824 88.5153 27 87.474 27H80.852V11.644H87.188C88.2293 11.644 89.124 11.8127 89.872 12.15C90.6347 12.4873 91.2067 12.9567 91.588 13.558C91.984 14.1593 92.182 14.8413 92.182 15.604C92.182 16.4987 91.94 17.2467 91.456 17.848C90.9867 18.4493 90.356 18.8747 89.564 19.124ZM83.932 17.98H86.748C87.4813 17.98 88.046 17.8187 88.442 17.496C88.838 17.1587 89.036 16.682 89.036 16.066C89.036 15.45 88.838 14.9733 88.442 14.636C88.046 14.2987 87.4813 14.13 86.748 14.13H83.932V17.98ZM87.034 24.492C87.782 24.492 88.3613 24.316 88.772 23.964C89.1973 23.612 89.41 23.1133 89.41 22.468C89.41 21.808 89.19 21.2947 88.75 20.928C88.31 20.5467 87.716 20.356 86.968 20.356H83.932V24.492H87.034ZM98.0687 16.704C98.4647 16.0587 98.978 15.5527 99.6087 15.186C100.254 14.8193 100.987 14.636 101.809 14.636V17.87H100.995C100.027 17.87 99.2934 18.0973 98.7947 18.552C98.3107 19.0067 98.0687 19.7987 98.0687 20.928V27H94.9887V14.812H98.0687V16.704ZM105.445 13.36C104.903 13.36 104.448 13.1913 104.081 12.854C103.729 12.502 103.553 12.0693 103.553 11.556C103.553 11.0427 103.729 10.6173 104.081 10.28C104.448 9.928 104.903 9.752 105.445 9.752C105.988 9.752 106.435 9.928 106.787 10.28C107.154 10.6173 107.337 11.0427 107.337 11.556C107.337 12.0693 107.154 12.502 106.787 12.854C106.435 13.1913 105.988 13.36 105.445 13.36ZM106.963 14.812V27H103.883V14.812H106.963ZM109.214 20.862C109.214 19.63 109.456 18.5373 109.94 17.584C110.439 16.6307 111.114 15.8973 111.964 15.384C112.815 14.8707 113.761 14.614 114.802 14.614C115.594 14.614 116.35 14.79 117.068 15.142C117.787 15.4793 118.359 15.934 118.784 16.506V10.72H121.908V27H118.784V25.196C118.403 25.7973 117.868 26.2813 117.178 26.648C116.489 27.0147 115.69 27.198 114.78 27.198C113.754 27.198 112.815 26.934 111.964 26.406C111.114 25.878 110.439 25.1373 109.94 24.184C109.456 23.216 109.214 22.1087 109.214 20.862ZM118.806 20.906C118.806 20.158 118.66 19.52 118.366 18.992C118.073 18.4493 117.677 18.0387 117.178 17.76C116.68 17.4667 116.144 17.32 115.572 17.32C115 17.32 114.472 17.4593 113.988 17.738C113.504 18.0167 113.108 18.4273 112.8 18.97C112.507 19.498 112.36 20.1287 112.36 20.862C112.36 21.5953 112.507 22.2407 112.8 22.798C113.108 23.3407 113.504 23.7587 113.988 24.052C114.487 24.3453 115.015 24.492 115.572 24.492C116.144 24.492 116.68 24.3527 117.178 24.074C117.677 23.7807 118.073 23.37 118.366 22.842C118.66 22.2993 118.806 21.654 118.806 20.906ZM129.69 14.614C130.6 14.614 131.399 14.7973 132.088 15.164C132.778 15.516 133.32 15.978 133.716 16.55V14.812H136.818V27.088C136.818 28.2173 136.591 29.222 136.136 30.102C135.682 30.9967 135 31.7007 134.09 32.214C133.181 32.742 132.081 33.006 130.79 33.006C129.06 33.006 127.637 32.6027 126.522 31.796C125.422 30.9893 124.799 29.8893 124.652 28.496H127.71C127.872 29.0533 128.216 29.4933 128.744 29.816C129.287 30.1533 129.94 30.322 130.702 30.322C131.597 30.322 132.323 30.0507 132.88 29.508C133.438 28.98 133.716 28.1733 133.716 27.088V25.196C133.32 25.768 132.77 26.2447 132.066 26.626C131.377 27.0073 130.585 27.198 129.69 27.198C128.664 27.198 127.725 26.934 126.874 26.406C126.024 25.878 125.349 25.1373 124.85 24.184C124.366 23.216 124.124 22.1087 124.124 20.862C124.124 19.63 124.366 18.5373 124.85 17.584C125.349 16.6307 126.016 15.8973 126.852 15.384C127.703 14.8707 128.649 14.614 129.69 14.614ZM133.716 20.906C133.716 20.158 133.57 19.52 133.276 18.992C132.983 18.4493 132.587 18.0387 132.088 17.76C131.59 17.4667 131.054 17.32 130.482 17.32C129.91 17.32 129.382 17.4593 128.898 17.738C128.414 18.0167 128.018 18.4273 127.71 18.97C127.417 19.498 127.27 20.1287 127.27 20.862C127.27 21.5953 127.417 22.2407 127.71 22.798C128.018 23.3407 128.414 23.7587 128.898 24.052C129.397 24.3453 129.925 24.492 130.482 24.492C131.054 24.492 131.59 24.3527 132.088 24.074C132.587 23.7807 132.983 23.37 133.276 22.842C133.57 22.2993 133.716 21.654 133.716 20.906ZM151.157 20.642C151.157 21.082 151.127 21.478 151.069 21.83H142.159C142.232 22.71 142.54 23.3993 143.083 23.898C143.625 24.3967 144.293 24.646 145.085 24.646C146.229 24.646 147.043 24.1547 147.527 23.172H150.849C150.497 24.3453 149.822 25.3133 148.825 26.076C147.827 26.824 146.603 27.198 145.151 27.198C143.977 27.198 142.921 26.9413 141.983 26.428C141.059 25.9 140.333 25.1593 139.805 24.206C139.291 23.2527 139.035 22.1527 139.035 20.906C139.035 19.6447 139.291 18.5373 139.805 17.584C140.318 16.6307 141.037 15.8973 141.961 15.384C142.885 14.8707 143.948 14.614 145.151 14.614C146.309 14.614 147.343 14.8633 148.253 15.362C149.177 15.8607 149.888 16.572 150.387 17.496C150.9 18.4053 151.157 19.454 151.157 20.642ZM147.967 19.762C147.952 18.97 147.666 18.3393 147.109 17.87C146.551 17.386 145.869 17.144 145.063 17.144C144.3 17.144 143.655 17.3787 143.127 17.848C142.613 18.3027 142.298 18.9407 142.181 19.762H147.967Z" fill="white"/>
<path d="M21.7031 0C17.4107 -4.83496e-08 13.2146 1.2023 9.64552 3.45487C6.07646 5.70744 3.29471 8.9091 1.65205 12.655C0.00939458 16.4009 -0.4204 20.5227 0.417019 24.4993C1.25444 28.476 3.32146 32.1287 6.35669 34.9957C9.39193 37.8627 13.2591 39.8151 17.469 40.6061C21.679 41.3971 26.0428 40.9911 30.0085 39.4395C33.9743 37.8879 37.3638 35.2604 39.7486 31.8892C42.1334 28.518 43.4062 24.5545 43.4062 20.5L32.5547 20.5C32.5547 22.5273 31.9183 24.509 30.7259 26.1946C29.5335 27.8802 27.8387 29.194 25.8558 29.9698C23.873 30.7456 21.6911 30.9485 19.5861 30.553C17.4811 30.1575 15.5475 29.1813 14.0299 27.7478C12.5123 26.3144 11.4788 24.488 11.0601 22.4997C10.6414 20.5114 10.8563 18.4504 11.6776 16.5775C12.4989 14.7046 13.8898 13.1037 15.6743 11.9774C17.4589 10.8512 19.5569 10.25 21.7031 10.25L21.7031 0Z" fill="white"/>
<path d="M21.7031 0C18.853 -3.2103e-08 16.0308 0.530248 13.3977 1.56047C10.7646 2.59069 8.37202 4.10071 6.3567 6.00431C4.34138 7.90791 2.74274 10.1678 1.65205 12.655C0.561367 15.1422 -4.30352e-07 17.8079 0 20.5L10.8516 20.5C10.8516 19.154 11.1322 17.8211 11.6776 16.5775C12.2229 15.3339 13.0223 14.204 14.0299 13.2522C15.0376 12.3004 16.2338 11.5453 17.5504 11.0302C18.867 10.5151 20.2781 10.25 21.7031 10.25L21.7031 0Z" fill="#1CE8A8"/>
<ellipse cx="21.7031" cy="20.5" rx="6.78223" ry="6.40625" fill="#1CE8A8"/>
<path d="M28.4854 20.5C28.4854 19.6587 28.3099 18.8257 27.9691 18.0484C27.6282 17.2712 27.1287 16.565 26.4989 15.9701C25.8691 15.3752 25.1214 14.9033 24.2986 14.5814C23.4757 14.2595 22.5938 14.0937 21.7031 14.0938C20.8125 14.0938 19.9305 14.2595 19.1077 14.5814C18.2848 14.9033 17.5372 15.3752 16.9074 15.9701C16.2776 16.565 15.778 17.2712 15.4372 18.0484C15.0963 18.8257 14.9209 19.6587 14.9209 20.5L21.7031 20.5H28.4854Z" fill="white"/>
</svg>
