<svg xmlns="http://www.w3.org/2000/svg" viewBox="0 0 128 160" x="0px" y="0px"><g><path d="M91.325,49.56c.088-.061-.043.3-.06.357a2.7,2.7,0,0,1-.331.758,8.771,8.771,0,0,1-.567.7,4.742,4.742,0,0,1,1.769,2.414,13.494,13.494,0,0,1,.523,2.571,1.221,1.221,0,0,1,.349.018c.514.113,2.214-1.674,2.5-1.9a14.5,14.5,0,0,1,2.789-1.7,32.77,32.77,0,0,0,4.542-2.824c1.15-.819,2.239,1.072,1.106,1.874a22.6,22.6,0,0,1-2.518,1.8,29.684,29.684,0,0,0-4,2.11c-.584.444-1.212,1.063-1.883,1.6a33.905,33.905,0,0,0,4.681-1.734c1.952-.8,3.748-1.865,5.682-2.711,1.273-.558,2.4,1.325,1.116,1.883-2.353,1.028-4.55,2.362-6.99,3.164-1.159.375-2.92.9-4.218,1.281,1.9,1.351,4.122,2.083,5.97,3.661,1.508,1.3,3.3,2.58,4.837,4,1.7-.916,4.036-2.1,5.953-1.761-.017-.1-.035-.183-.052-.279a1.183,1.183,0,0,1-1.247-1.647c1.186-2.554,2.885-6.1,2.023-8.943a11.046,11.046,0,0,0-1.534-2.868.36.36,0,0,0-.026.061c-.576,1.273-2.459.166-1.875-1.106a5.872,5.872,0,0,0,.523-1.874,1.247,1.247,0,0,1,.027-.445c.017-1.848-1.046-3.3-1.944-5.186-.732-1.551-1.159-3.3-1.987-4.794-2.17-3.913-4.8-4.95-9.047-6.362a1.106,1.106,0,0,1-.558-.41.888.888,0,0,1-.855-.784,5.774,5.774,0,0,0-.653-1.813c-.488-.785-.793-.637-1.6-.427a10.973,10.973,0,0,1-3.992.636.917.917,0,0,1-.235-.044A33.473,33.473,0,0,1,89.3,35.71c-.558,4.027-1.639,9.431-.061,13.353a2.723,2.723,0,0,1,.523-1.011,1.085,1.085,0,0,1,1.559,1.508Zm22.453,52.7c-.218.287-.4.06-1.43-.271a1.5,1.5,0,0,1-.514-.313c-.775.784-1.56,1.542-2.336,2.283-2.388,2.293-2.719,5.918-6.362,5.439-4.253-.558-8.516-.27-12.778-.863-4.672-.654-9.3-1.56-13.945-2.336a.967.967,0,0,1-.584-.3c-1.683.767-3.33,1.6-4.977,2.458,2.257,1.534,5.831,2.44,8.132,3.425,2.78,1.194,5.578,2.354,8.289,3.7s6.249,3.128,9.3,3.408a9.459,9.459,0,0,1,2.466.479c.14.052.262.1.366.131,1.674-4.141,6.564-6.668,9.318-10A47.132,47.132,0,0,0,113.778,102.257ZM51.93,27.081a7.712,7.712,0,0,1,1.011-1.438,1.254,1.254,0,0,1-.184-.165,5.54,5.54,0,0,1-.575-.846A5.473,5.473,0,0,0,51.93,27.081Zm71.1,72.265a1.1,1.1,0,0,1,.5,1.228c-1.387,5.7-6.642,8.934-10.538,12.752a36.76,36.76,0,0,1-4.524,3.966c-1.42.993-2.292-.157-3.722-.637a.908.908,0,0,1-.183-.078c-1.333,1.2-2.928,2.615-3.268,4.114a1.521,1.521,0,0,1-.61,1.019,1.109,1.109,0,0,1-1.325.175c-2.1-1.4-5.064-.741-7.347-1.961-.454-.236-.916-.462-1.386-.689-1.038.845-3.931,2-4.062,3.4-.052.628-.436.863-.915,1.212a1.075,1.075,0,0,1-1.107,0c-4.219-2.685-9.2-2.877-13.789-4.576a56.919,56.919,0,0,1-8.445-4.349,13.072,13.072,0,0,0,.2,4.863,1.1,1.1,0,0,1-.767,1.343c-2.1.427-4.82-.341-6.929-.506-3.914-.323-7.888-.035-11.81-.07-7.7-.069-15.183-1.743-22.836-2.423-3.33-.287-6.363-1.647-9.509-2.71-1.857-.637-4.454-.985-5.788-2.58-1.752-2.1,2.415-3.827,4.794-4.576-.653-.785-1.194-1.36-.88-2.511a5.161,5.161,0,0,1,1.56-1.838,5.912,5.912,0,0,1-.654-.8,1.109,1.109,0,0,1,.166-1.325,6.28,6.28,0,0,1,3.312-1.708c-.645-.48-.749-1.831.279-1.979,2.99-.427,6.737-.549,9.369-2,2.04-1.133,4.132-2.231,6.058-3.556a27.536,27.536,0,0,0,2.92-1.813c-1.36-1.2-1.752-3.582-1.813-5.378a1,1,0,0,1-.41-.619c-.488-2.161-.392-4.541-.767-6.754A7.9,7.9,0,0,1,29.242,73a14.112,14.112,0,0,1,1.072-1.978c-.567-1.247-1.028-3.156-.314-4.446a2.114,2.114,0,0,1,1.185-1.141c.123-.035.245-.053.367-.079a5.007,5.007,0,0,1,2.4-5.962,4.395,4.395,0,0,1-.009-1.821c.287-1.944.906-3.931,1.316-5.831a1.424,1.424,0,0,1,.584-1.029c.985-.653.514-1.978.549-2.981a9.36,9.36,0,0,1,1.787-5.238c1.22-1.848-.009-3.382.54-5.29.5-1.726,1.36-1.918,2.554-3.277,1.979-2.249,5.465-4.559,8.672-4.21a18.961,18.961,0,0,1-.261-3.225c.017-1.639.688-2.964,1.02-4.541a.948.948,0,0,1,.479-.68,4.317,4.317,0,0,1-.209-3.722,10.036,10.036,0,0,1,1.15-2.728c.636-.854.262-1.508.1-2.44C51.52,8.246,55.189,7.226,58.057,5.4a1,1,0,0,1,.993-.7c2.188-.018,4.358-.392,6.555-.3,1.325.052,3.094-.619,4.306-.314A12.41,12.41,0,0,1,73.955,5.8c1.107-.968,2.989-.985,4.331-.715,1.665.332,2.676,2.214,3.879,3.2,2.685,2.205,5.631,6.694,4.55,10.32A13.371,13.371,0,0,1,88.1,22.052,23.04,23.04,0,0,1,89.3,26.759a1.047,1.047,0,0,1,.479-.061c2.04.218,3.862-1.159,5.892-.784,1.264.235,2.1,2.422,2.388,3.678a38.194,38.194,0,0,1,7.853,3.251c1.482.906,2.354,3.869,3,5.29,1.664,3.661,3.9,6.52,3.669,10.085.392,1.29,1.482,2.161,2.075,3.4a9.668,9.668,0,0,1,.993,4.245,16.425,16.425,0,0,1-1.612,6.5.914.914,0,0,1,.043.183,6.415,6.415,0,0,0,.41,1.1,10.1,10.1,0,0,1,.2,1.011c.113.688.252,1.369.322,2.057a2.159,2.159,0,0,1,.044,3.05,1.222,1.222,0,0,1,.374.3c.218.236.6.549.68.907.331,1.673.392,3.5.872,5.125a4.972,4.972,0,0,1-2.066,5.9.567.567,0,0,1-.009.123c-.488,2.911-2.894,5.151-3.373,7.949a8.528,8.528,0,0,1-1.342,3.172,9.069,9.069,0,0,0,2.685.567,11.865,11.865,0,0,1,3.338.148,1.107,1.107,0,0,1,.654,1.6c-.105.174-.227.348-.341.523C118.668,97.245,120.934,98.142,123.026,99.346Zm-9.614,10.371c2.806-2.963,6.4-4.828,7.766-8.89-1.927-1.028-3.983-1.883-5.927-2.955-.541.7-1.116,1.369-1.717,2.023,1.107.409,2.824.74,2.719,1.873-.218,2.249-2.449,4.193-3.625,6a45.445,45.445,0,0,1-6.293,7.077c1.011.218,1.446-.052,2.606-.941A38.27,38.27,0,0,0,113.412,109.717Zm.8-30.026c1.316-1.7.523-4.463.113-6.5-.279-1.395-1.09-1.761-1.8-2.8a1.071,1.071,0,0,1,0-1.107,2.511,2.511,0,0,1,.662-.811q-1.674-1.778-3.478-.592c-.488.253-.985.471-1.481.688l.165.192a50.575,50.575,0,0,1,4.419,6.049C113.6,76.2,113.708,78.148,114.214,79.691Zm-1.465,2.083c-1.185-1.978-1.08-4.48-2.344-6.581a28.277,28.277,0,0,0-6.258-7.3c-2.458-2.031-4.532-4.026-7.461-5.386a12.679,12.679,0,0,1-4.733-4.071,4.1,4.1,0,0,1-1.656.846A2.684,2.684,0,0,1,88.266,59c-.688.3-1.4.436-2.126.68-.462.148-.95.383-1.438.584,1.943,5.064,3.1,11.287,6.118,15.785.671.993,1.447,1.943,2.214,2.884a1.044,1.044,0,0,1,.567.706,23.545,23.545,0,0,1,1.786,2.5c1.2,2,2.084,3.957,3.765,5.665,2,2.022,6.389,8.821,9.074,3.932C109.8,88.877,112.131,85.043,112.749,81.774Zm1.072,14.39c-4.88-.68-9.944.244-14.912-.27-4.341-.453-8.621-1.212-12.97-1.647.436,1.638,1.552,3.364,1.839,4.907.1.523.314,1.22-.174,1.638-2.449,2.1-5.378,2.728-8.306,3.7,3.373.6,6.737,1.255,10.136,1.726,4.062.567,8.3.009,12.29.759,2.71.514,2.527.461,4-1.839a12.626,12.626,0,0,1,2.241-2.728A44.961,44.961,0,0,0,113.821,96.164Zm-11.888-2.2h.253c-.488-.426-.976-.9-1.473-1.394-.026-.026-.044-.052-.07-.078-.026,0-.052.008-.079.008-2.71.227-5.43,0-8.149,0-.732,0-1.464.044-2.188.1A106.525,106.525,0,0,0,101.933,93.967Zm-9.518-3.643c2.1,0,4.192.131,6.276.088a87.31,87.31,0,0,1-6.912-9.065,13.242,13.242,0,0,1-7.269-.174c.157.183.322.357.479.54a27.763,27.763,0,0,1,3.983,5.561c.593,1.185,1.508,1.952,2.066,3.094C91.491,90.342,91.953,90.324,92.415,90.324ZM90.471,79.429c-.3-.453-.61-.906-.915-1.368-2.3-3.417-3.669-7.539-5-11.592a13.044,13.044,0,0,1-3.094.7c.236,1.159.942,2.519,1.194,3.478.462,1.725.61,3.521,1.09,5.229.453,1.613.288,2.7,2.292,3.269A9.506,9.506,0,0,0,90.471,79.429Zm-.679-22.2c.479-.1.775-1.028.644-1.473-.13-.462-.235-.942-.4-1.386-.209-.584-1.264-1.952-1.97-2.1-1.438-.313-.34,1.866.026,2.432a8.754,8.754,0,0,0,1.473,2.284A1.17,1.17,0,0,1,89.792,57.23ZM88.659,90.56c-.5-.567-1.194-1-1.465-1.8a15.313,15.313,0,0,0-3.207-4.881C82.836,82.55,81.529,81.4,80.4,80.048c-.445-.54-1.918-2.684-2.746-3.059a1.791,1.791,0,0,1-.854.653c-.078.027-.139.035-.209.053.959,3.9,1.831,7.827,2.8,11.688a1.051,1.051,0,0,1-.061.724c.9.278,1.847.592,2.763.976a.988.988,0,0,1,.5-.1A48.7,48.7,0,0,0,88.659,90.56ZM87.046,36.216c.514-3.748.793-8.751-.566-12.325-.2-.523-1.125-4.288-1.168-2.858-.07,1.934-.174,3.852-.306,5.778a3.755,3.755,0,0,1,.585.645.914.914,0,0,1,.052,1.038,5.232,5.232,0,0,1,.174.531,7.644,7.644,0,0,0,.122.776,4.222,4.222,0,0,1,.2.645,1.124,1.124,0,0,1-.759,1.342,1.1,1.1,0,0,1-1.342-.767c-.07-.471-.314-.889-.349-1.377a2.6,2.6,0,0,0-.523-1.3.96.96,0,0,1-.148-.383.773.773,0,0,1-.13-.218,2.527,2.527,0,0,1-.5-.514,10.084,10.084,0,0,1-.828-1.43,11.632,11.632,0,0,0-1.988-3c-.191-.209-.392-.419-.6-.61-.1-.061-.183-.114-.253-.157l-.017.017a4.52,4.52,0,0,0,.035,1.6c.261,1.124.793,2.161.976,3.3a1.22,1.22,0,0,1-.009.358,24.745,24.745,0,0,1,2.458,2.8.814.814,0,0,1,.375.392c.287.645.732,1.2,1.02,1.856a6.371,6.371,0,0,1,.549,2.406c.043,1.4-2.136,1.394-2.179,0a3.84,3.84,0,0,0-.453-1.726c-.253-.488-.593-.932-.811-1.43l-.009-.008a1.249,1.249,0,0,1-.322-.323,22.864,22.864,0,0,0-2.711-3.094,30.551,30.551,0,0,1-1.935-2.4c-.383-.471-.915-.968-1.115-.1a2.619,2.619,0,0,0-.088,1.272A22.468,22.468,0,0,0,76,29.853a1.085,1.085,0,0,1,.113.532,9.764,9.764,0,0,1,1.29.645,6.091,6.091,0,0,1,1.709,1.7c.523.846,1.342,1.36,1.9,2.136A6.718,6.718,0,0,1,82,36.983c.409,1.342-1.691,1.917-2.1.575a4.591,4.591,0,0,0-1.421-2.109c-.575-.593-.941-1.395-1.516-1.97a11.647,11.647,0,0,0-2.624-1.508c-.41,1.124.645,2.066,1.02,3.155.331.994.514,3.609,1.63,4.036a1.124,1.124,0,0,1,.732,1.089,1.066,1.066,0,0,1,.035.576c-.514,2.431-.819,6.824.54,8.968a11.059,11.059,0,0,0,1.473,1.848,1.217,1.217,0,0,1,.236.244c.54.532,1.107,1.037,1.717,1.613a1.01,1.01,0,0,1,.261.366,6.61,6.61,0,0,1,.9-.471,14.588,14.588,0,0,0,2.336-.942h.008c.009-.1.018-.183.035-.27a2.44,2.44,0,0,1,2.049-2.109C85.46,45.681,86.419,40.818,87.046,36.216Zm-2.571,85.529c.488-1.786,2.432-2.588,3.913-3.556-1.412-.627-2.841-1.237-4.209-1.83-3.025-1.325-6.076-2.606-9.117-3.9-2.075-.881-4.576-1.551-6.337-3.007-2.048,1.081-4.1,2.144-6.206,3.085,2.877,1.656,5.64,3.574,8.8,4.628,2.928.977,6.04,1.343,8.933,2.4C81.642,120.072,84.728,120.839,84.475,121.745ZM86.959,57.2c-.34-.567-.628-1.177-.959-1.735a7.1,7.1,0,0,1-.4-.767,13.872,13.872,0,0,0-1.543.576c-.357.174-.6.366-.949.557a1.913,1.913,0,0,0-.192.087c.078.323.165.663.252.994a5.2,5.2,0,0,0,.358,1.377c.008.018.017.026.026.044.514-.192,1.029-.436,1.517-.6C85.686,57.535,86.34,57.422,86.959,57.2Zm-2.528,43.3c1.456-1.028,1.038-.618.532-1.891-.026-.078-.052-.148-.078-.226-.785.374-1.63.235-2.807.871a19.157,19.157,0,0,1-4.323,1.927c-4.6,1.263-8.829,3.32-13.24,5.081-3.739,1.481-6.859,4.114-10.529,5.648a8.859,8.859,0,0,1,.218,1.211c7.139-1.673,12.952-6.1,19.768-8.846,1.613-.654,3.19-1.395,4.811-2.031C80.518,101.568,82.924,101.559,84.431,100.5Zm.192-82.5c.941-3.565-6.275-12.612-9.082-10.686a5.926,5.926,0,0,1,.749,1.325.892.892,0,0,1,.2.523.923.923,0,0,1-.122.662A6.81,6.81,0,0,1,76,10.913c-.079.166-.227.392-.366.619a1.243,1.243,0,0,1,.418.236A3.831,3.831,0,0,1,77,12.918a14.107,14.107,0,0,1,1.29,3.87,7.916,7.916,0,0,1,.776,2.109c.035.288.061.575.087.854,1.508.506,2.65,2.249,3.469,3.5.044.06.079.13.123.2C82.714,21.172,82.976,18.827,84.623,18.008ZM83.778,64.5a.862.862,0,0,1,.1-.07c-.462-1.377-.932-2.728-1.447-4.026a3.9,3.9,0,0,1-1.307-2.084,6.392,6.392,0,0,1-.628-3.068,1.2,1.2,0,0,1-.322-.218c-.166-.156-.34-.313-.523-.461A53.663,53.663,0,0,0,78.3,60c-.479,2.762-.139,8.236-.009,10.023,1.107,1.115.855,3.477.227,5.012-.009.017-.009.035-.017.052a8.927,8.927,0,0,1,2.092,1.865c.453.506.924,1,1.394,1.5a.075.075,0,0,0-.017-.035,64.732,64.732,0,0,0-1.412-7.19c-.471-1.43-1.491-3.452-1.343-4.977A1.124,1.124,0,0,1,80,65.2c.679-.148,1.377-.3,2.074-.435C82.4,64.7,84.222,64.133,83.778,64.5Zm-2.8,32.877c1.578-.707,3.286-.654,2.719-2.31-2.8.139-5.43.035-8.263.811-3.181.862-6.458,1.673-9.561,2.806-4.82,1.752-7.7,6.92-12.6,8.585,0,1.343-.122,1.857.261,2.493,3.016-1.308,5.7-3.478,8.673-4.9,2.937-1.411,6.083-2.562,9.073-3.887C74.46,99.563,77.807,98.8,80.98,97.376Zm-3.155-4.393a11.549,11.549,0,0,1,2.858-.209c-2.344-.854-5.02-1.116-7.216-1.935a48.235,48.235,0,0,0-9.91-2.615c-6.476-.933-12.447-1.952-18.931-1.316a11.707,11.707,0,0,1-2.694,1.368c-.592.541-1.045,1.168-1.612,1.734a4.451,4.451,0,0,1-1.726.863,9.808,9.808,0,0,1-4.576.637c-.784,1.115-1.952,1.473-3.146,2.3a57.024,57.024,0,0,1-6.964,4.175A21.693,21.693,0,0,1,17.039,99.8c5.4,2.562,12.639,3.312,18.1,3.66,5.831.366,11.461,1.752,17.327,1.787,3.051-.967,5.788-3.948,8-6.1A13.541,13.541,0,0,1,66.389,96.2C70.2,95.144,73.963,93.846,77.825,92.983ZM76.77,55.364c.27-.871.706-1.629,1.028-2.475a9.133,9.133,0,0,1-1.159-1.377c-.357.279-.7.541-1.037.8,0,.035.009.061.009.1.035,2.632.418,5.317.366,7.932a7.546,7.546,0,0,1,.218-.907C76.613,58.136,76.378,56.62,76.77,55.364ZM77.031,20.5a5.374,5.374,0,0,0-.121-1.3A9.238,9.238,0,0,0,76.4,17.86a.944.944,0,0,1-.2-.453,11.035,11.035,0,0,0-.889-3.016c-.445-.889-.82-.828-1.569-1.264a1.109,1.109,0,0,1-.541-.941A10.338,10.338,0,0,1,74.225,9.3c-.732-1.421-3.556-3.5-5.238-2.833a3.7,3.7,0,0,1-2.258.392c-2.327-.47-4.6-.1-6.947-.008-1.124.819-2.457,1.333-3.617,2.091-1.908,1.238-1.83,2.441-1.289,4.393.548,2-3.243,4.777-1.839,6.764.871-.654,2.327.331,1.612,1.377-1.647,2.432.775,2.667,1.743,4.323.436.741.244,2.964,1.482,3.155.157-1.037,1.839-1.359,2.118-.148.131.576.288,2.554,1.142,2.31a7.062,7.062,0,0,0,1.943-1.107,1.094,1.094,0,0,1,1.491.392c.27.567.566,2.057,1.385,1.543-.026-.227-.034-.445-.043-.663a1.09,1.09,0,0,1,2.179,0c.009.192-.079,1.186.288,1.195a4.091,4.091,0,0,0,1.481-.271c.793-.3,1.578-.593,2.371-.871a3.775,3.775,0,0,1,.479-.933,1.111,1.111,0,0,1,.5-.392,1.329,1.329,0,0,1,.27-.27,6.375,6.375,0,0,1-1.168-3.7c.105-1.359.829-2.832,2.31-3.024a2.454,2.454,0,0,1,1.935.575,5.944,5.944,0,0,1-.07-1.255A4.148,4.148,0,0,1,77.031,20.5Zm-.8,54.291c.383-.993.984-2.082.575-3.207-.157-.427-3.957.279-5.456.942.322.357.906.7,1.141,1.037a9.948,9.948,0,0,0,.872,1.281.9.9,0,0,1,.575.052,5.9,5.9,0,0,1,1.247.549C76.064,76.048,76,75.377,76.23,74.792Zm.932,14.678c-.793-3.233-1.551-6.493-2.327-9.744-.627.8-1.194,1.63-1.856,2.457a21.007,21.007,0,0,1-3.574,3.687c-1.09.863-2.641-.67-1.534-1.542a17.679,17.679,0,0,0,3.966-4.245,17.412,17.412,0,0,1,2.188-2.8c-.105-.052-.218-.1-.332-.148a.817.817,0,0,1-.148.009c-1.325-.07-1.987-1.107-2.685-2.118-.4-.575-1.106-.732-1.464-1.308a3.243,3.243,0,0,1-.462-1.629,1.093,1.093,0,0,1,.2-.671c-1.168-3.165-1.36-6.389-2.118-9.728-.628-2.754-1.647-5.421-1.543-8.271a9.877,9.877,0,0,1-1.255-1.229c-.845-.994-1.159-2.51-2.188-3.26a3.363,3.363,0,0,1-.183,1.046,17.83,17.83,0,0,1-2.118,4.01c.793.549,1.517,1.2,2.266,1.8a1.088,1.088,0,0,1,0,1.543,1.11,1.11,0,0,1-1.533,0c-.654-.515-1.264-1.055-1.936-1.517a22.243,22.243,0,0,0-1.368,2.38c-.026.052-.044.113-.07.165.68,1.212,2.2,2.014,3.164,2.99a4.913,4.913,0,0,0,2.685,1.786c1.377.245.793,2.345-.584,2.1-1.613-.288-2.519-1.229-3.635-2.353-.775-.767-1.76-1.421-2.562-2.214-.1.262-.192.532-.3.793.706,1.325,2.171,2.109,3.112,3.269a25.349,25.349,0,0,1,2.545,3.809c.671,1.237-1.212,2.335-1.883,1.1a15.515,15.515,0,0,0-3.207-4.463c-.54-.462-1.081-.9-1.56-1.394a8.984,8.984,0,0,1-.593,1.028,20.494,20.494,0,0,0,3.155,6.877c1.709,2.292,3.914,3.765,5.988,5.674,1.038.95-.505,2.493-1.542,1.543-2.206-2.022-4.646-3.556-6.328-6.11a27.728,27.728,0,0,1-2.554-4.881c-.523,1.778-.959,3.565-1.386,5.369a1.117,1.117,0,0,1,1.735.157A47.907,47.907,0,0,1,56.279,79.4a39.35,39.35,0,0,0,3.6,5.805l.008.008a67.585,67.585,0,0,1,6.964,1.438C70.277,87.553,73.754,88.468,77.162,89.47ZM75.6,49.577a.9.9,0,0,1,.192-.122,20.938,20.938,0,0,1-.236-8.672c-1.586-1.238-1.464-3.643-2.51-5.317a7.514,7.514,0,0,1-.845-1.8c-1.369.558-2.946,1.307-4.367.924a2.317,2.317,0,0,1-1.063-.61,2.792,2.792,0,0,1-2.388-.018A2.983,2.983,0,0,1,63.016,32.7a.152.152,0,0,0-.026-.043,3.668,3.668,0,0,1-2.449.662,14.328,14.328,0,0,1-.724,2.658c-.976,2.685-.035,4.323.393,6.886a20.763,20.763,0,0,0,1.29,3.565,1.192,1.192,0,0,1,.348.026c2.214.558,2.493,2.2,3.7,3.879,1.394,1.943,4.123,3.129,6.467,1.9A23.928,23.928,0,0,0,75.6,49.577Zm-.444,19.9C73.136,64.8,73.432,58.825,73.44,53.752a7.443,7.443,0,0,1-5.769.767c.156,2.615,1.176,5.16,1.691,7.714.549,2.754.732,5.5,1.673,8.132.148-.044.279-.087.392-.122A16.34,16.34,0,0,1,75.158,69.476Zm-14.94,44.277a.792.792,0,0,1-.087-.044.874.874,0,0,1-.148-.1,34.692,34.692,0,0,1-6.641,1.909,1.167,1.167,0,0,1-.768.1,22.373,22.373,0,0,0-8.811.819c-1.883.523-4.193-.061-6.093-.34-3.285-.488-6.763-1.961-10.067-2a21.583,21.583,0,0,1-6.1-.81c-2.737-.82-7.156-1.438-9.979-3.286a.009.009,0,0,0-.009.009c-.253.052-5.465,1.551-3.382,2.248q4.367,1.477,8.716,3c4.489,1.568,9.849,1.1,14.529,1.978a91.755,91.755,0,0,0,17.9,1.107c2.763-.017,5.491.087,8.245.2.671.026,1.665.348,2.563.47A21.463,21.463,0,0,1,60.218,113.753ZM55.825,55.992c1.57-3.539,4.672-5.081,3.156-9.631-.794-2.371-2.092-5.543-2-8.053a34.5,34.5,0,0,1,1.49-6.816c-.052-.122-.1-.244-.148-.375a3.269,3.269,0,0,1-1.02-.131,6.7,6.7,0,0,1-1.115,2.885c-.393.445-.985.854-.95,1.543.017.619.087,1.238.1,1.856.053,1.4-2.126,1.4-2.179,0-.052-1.42-.261-2.71.6-3.957.453-.662,1.028-1.028,1.141-1.926a7.82,7.82,0,0,1,.541-1.821,5.939,5.939,0,0,1-.976-2.354,18.553,18.553,0,0,0-2.345,7.33c.1,1.839.575,3.608.6,5.456.035,2.711.567,5.43.183,8.132-.322,2.2-3.1,6.433-4.506,8.037-.993,1.15-1.891,2.309-2.789,3.46a1.371,1.371,0,0,1-.2.253c-.82,1.046-1.656,2.074-2.58,3.068a.917.917,0,0,1-.34.8c-3.042,2.7-8.071,4.35-10.111,7.854-1.874,3.233-1.595,8.567-.758,12.367a1.033,1.033,0,0,1,.514.916,7.932,7.932,0,0,0,.671,3.53c.48,1.019,1.979,1.063,3,.985a6.129,6.129,0,0,0,2.963-.933,23.215,23.215,0,0,1,1.744-1.848A1.091,1.091,0,0,1,40.9,86.4a1.051,1.051,0,0,1,.323-.174c5-1.691,6.746-7.583,7.626-12.2a49.225,49.225,0,0,1,2.58-8.689.945.945,0,0,1,.323-.837c.008-.009.008-.017.017-.026q.679-1.647,1.447-3.242a1.214,1.214,0,0,1,.183-.271c.043-.087.087-.183.139-.279A50.484,50.484,0,0,0,55.825,55.992Zm1.151,28.833a31.72,31.72,0,0,1-2.571-4.332,50.3,50.3,0,0,0-2.938-5.953,1.231,1.231,0,0,1-.1-.209c-.427,1.786-.854,3.582-1.394,5.395-.009.017-.009.035-.018.052a2.432,2.432,0,0,1,.671.628,2.542,2.542,0,0,1,.366,1.194c.009.958.087,1.908.105,2.867Q54.035,84.508,56.976,84.825ZM52.13,113.413a4.118,4.118,0,0,1-.34-.95c-.035-.1-.052-.218-.087-.331a17.679,17.679,0,0,0-1.917-.34c-2.615-.166-5.239-.166-7.862-.349-4-.27-8.376.236-12.3-.488A58.412,58.412,0,0,1,17.371,107.7a44.67,44.67,0,0,1-5.073-2.257,3.676,3.676,0,0,1-.523.636c-1.368,1.316,3.9,3.26,4.532,3.46a60.763,60.763,0,0,0,7.3,2.022c2.344.419,4.7.2,7.007.8A56.406,56.406,0,0,0,40.834,114.3c1.935.139,3.382-.828,5.238-.88C48.077,113.378,50.125,113.3,52.13,113.413Zm-.872-3.347a10.37,10.37,0,0,1-.165-2.667,169.35,169.35,0,0,1-19.245-2.074c-5.029-.715-11.122-1.352-15.976-3.67a1.588,1.588,0,0,1-.218.07c-.785.2-3.286.409-3.269,1a1.165,1.165,0,0,1,.21.314,2.5,2.5,0,0,0,.487.288,44.5,44.5,0,0,0,6.6,2.945c3.434.985,7.9,2.677,11.478,2.677,4.707,0,9.362.4,14.051.505C47.049,109.491,49.262,109.961,51.258,110.066ZM48.1,52.811a17.9,17.9,0,0,0,2.615-9.971c-.192-2.72-1.49-6.886-.784-9.562.113-.409.217-.854.331-1.3-3.251-.828-10.782,3.983-9.335,7.835,1.229,3.278-2.362,4.515-2.362,7.914,0,1,.34,2.641-.2,3.574-.07.122-.881,1.046-.924.819.287,1.386-2.205,5.8-1.4,6.572,1.979-.07,4.062-.287,6.11-.558-.575-.758-1.133-1.5-1.743-2.231-.907-1.063.627-2.615,1.534-1.534a16.706,16.706,0,0,1,1.673,2.066,7.273,7.273,0,0,0,1.029,1.368,37.347,37.347,0,0,0,2.318-3.138c-.009,0-.009,0-.017-.008-1.691-.828-2.171-2.389-3.112-3.87-1.115-1.752-2.109-3.609-3.051-5.448-.644-1.255,1.238-2.353,1.875-1.106.854,1.664,1.734,3.381,2.736,4.95.8,1.255,1.229,2.9,2.65,3.6Zm.811,31.665c-.009-.706-.052-1.412-.087-2.118a14.286,14.286,0,0,1-1.526,2.17C47.833,84.494,48.373,84.485,48.914,84.476ZM39.98,62.756c.819-.776,1.665-1.613,2.493-2.484-2.292.253-5.317.479-6.764.584a1.086,1.086,0,0,1-.845.5c-.977.07-1.718,2.676-1.238,3.365A1.622,1.622,0,0,1,33.957,66a1.8,1.8,0,0,1-.828,1.177,2.583,2.583,0,0,1-.915.235,2.643,2.643,0,0,0-.27,1.613c2.214-2.258,4.994-3.635,7.722-5.753A1.066,1.066,0,0,1,39.98,62.756Z"/><path d="M110.684,55.835c1.246-.662,2.345,1.212,1.107,1.874-2.519,1.351-4.5,3.713-7.452,4.149-1.378.2-1.97-1.9-.584-2.109C106.492,59.356,108.348,57.082,110.684,55.835Z"/><path d="M103.214,40.251c.314-1.368,2.414-.793,2.1.576a4.709,4.709,0,0,1-1.264,2.335,18.47,18.47,0,0,0-1.987,2.72c-1.308,1.917-2.572,3.844-4,5.665-.863,1.107-2.4-.444-1.542-1.534a61.96,61.96,0,0,0,3.66-5.229,15.236,15.236,0,0,1,1.525-2.319A4.824,4.824,0,0,0,103.214,40.251Z"/><path d="M94.673,33.348c.148-1.386,2.327-1.394,2.179,0a39.129,39.129,0,0,1-1.5,5.735,20.249,20.249,0,0,1-2.022,5.709c-.732,1.194-2.614.1-1.882-1.1,1.1-1.8,1.42-3.852,1.987-5.848A27.381,27.381,0,0,0,94.673,33.348Z"/><path d="M68.6,25.391a1.1,1.1,0,0,1-.384,1.49c-.427.2-.872.331-1.308.5a.03.03,0,0,1-.026.009l-.052.052c-.07.069-.14.131-.209.191-.192.157-.383.306-.584.445a1.085,1.085,0,0,1-1.491-.384,1.109,1.109,0,0,1,.384-1.49,6.376,6.376,0,0,1,1.151-.828c.331-.131.749-.244,1.028-.375A1.107,1.107,0,0,1,68.6,25.391Z"/><path d="M65.187,22.924c1.35-.41,1.917,1.691.583,2.109-.714.209-1.464.479-2.178.654a14.19,14.19,0,0,1-2.04.575c-1.4.122-1.386-2.057,0-2.179-.575.053.139-.087.261-.13.148-.044.3-.1.445-.157.331-.105.654-.2.976-.314C63.87,23.247,64.541,23.124,65.187,22.924Z"/><path d="M62.981,20.6a1.078,1.078,0,0,1,0,1.534,7.609,7.609,0,0,1-2.876,1.159,1.1,1.1,0,0,1-.584-2.109,5.475,5.475,0,0,0,1.918-.584A1.112,1.112,0,0,1,62.981,20.6Z"/><path d="M60.463,17.215A1.088,1.088,0,0,1,62,18.757l-.322.323a1.088,1.088,0,0,1-1.543-1.534Z"/></g><</svg>