<svg xmlns="http://www.w3.org/2000/svg" xmlns:xlink="http://www.w3.org/1999/xlink" version="1.1" x="0px" y="0px" viewBox="0 0 100 125" style="enable-background:new 0 0 100 100;" xml:space="preserve"><path d="M97.262558,29.8865967c-14.1621094-5.8427734-30.5058594-8.9311523-47.2631798-8.9311523  s-33.1000977,3.0883789-47.262207,8.9311523c-1.0209962,0.4208984-1.5073243,1.590332-1.0859376,2.6113281  c0.4208986,1.0205078,1.588379,1.5068359,2.6113281,1.0859375c0.8565063-0.3533325,1.7214355-0.696228,2.5942383-1.0286255  v21.3433228c1.8051147-0.6089478,3.6391602-1.1784058,5.5-1.7080078v-11.590271  c3.498291-1.2776489,7.1472778-2.3632202,10.9072266-3.263916v12.2617798c1.6533813-0.3182373,3.3201904-0.6083984,5-0.8671265  V36.2626953c3.6477661-0.6928711,7.371706-1.2260742,11.1572285-1.5637207v12.7736206  c1.6605225-0.1217041,3.3270874-0.2177124,5-0.2820435v-12.829834c1.852478-0.0864258,3.711853-0.1391602,5.5786133-0.1391602  c1.8665771,0,3.725769,0.0527344,5.578125,0.1391602v12.829895c1.6729126,0.0643311,3.3394775,0.1603394,5,0.2821045V34.6989746  c3.7854576,0.3376465,7.5094566,0.8708496,11.1572227,1.5637207v12.468689c1.6798096,0.258728,3.3466187,0.5488281,5,0.8670654  v-12.262085c3.7599487,0.9006958,7.4088135,1.9862671,10.9072266,3.263916V52.19104  c1.8609009,0.5296021,3.6948853,1.0990601,5.5,1.7080078V32.5550537c0.8729858,0.3324585,1.7380371,0.675415,2.5947266,1.0288086  c0.2490234,0.1030273,0.5078125,0.1518555,0.7617188,0.1518555c0.7861328,0,1.53125-0.4663086,1.8496094-1.237793  C98.7703705,31.4769287,98.2840424,30.3074951,97.262558,29.8865967z M23.2640247,31.15448  c-3.7439575,0.8457031-7.3894653,1.8716431-10.9072266,3.0690308v-3.588501  c3.5361938-1.1296997,7.1795654-2.0976563,10.9072266-2.8959961V31.15448z M39.4212532,28.6697998  c-3.7752075,0.3204956-7.5026875,0.8153076-11.1572285,1.47229v-3.3578491  c3.65979-0.6252441,7.3859882-1.0903931,11.1572285-1.3950806V28.6697998z M55.5779915,28.3475342  c-1.8528442-0.0823975-3.7130127-0.1259766-5.578125-0.1259766c-1.8652344,0-3.725647,0.0435791-5.5786133,0.1259766v-3.2697144  c1.852356-0.0783081,3.7119751-0.1223755,5.578125-0.1223755c1.866272,0,3.7260742,0.0441284,5.5786133,0.1224365V28.3475342z   M71.7352142,30.1422119c-3.6546631-0.6570435-7.3821411-1.1519165-11.1572227-1.4724121v-3.2806396  c3.7711754,0.3046265,7.4974327,0.7698364,11.1572227,1.3950806V30.1422119z M87.6424408,34.2235718  c-3.5178223-1.1973877-7.1633911-2.2232666-10.9072266-3.0689697v-3.4155884  c3.7276611,0.7982788,7.3710327,1.7662354,10.9072266,2.895874V34.2235718z M96.4996796,58.9845581v19.0599976  c0,0.5523071-0.4477539,1-1,1H77.2727509c-0.4349365,0-0.8067627-0.2851563-0.9465942-0.6970215  c-2.8109741-8.2780151-13.5288658-14.440918-26.3264732-14.440918c-12.798584,0-23.5164814,6.1629028-26.3274555,14.440918  c-0.1398926,0.4118652-0.5116577,0.6970215-0.9466553,0.6970215H4.4996815c-0.5523069,0-0.9999998-0.4476929-0.9999998-1V58.9840088  c0-0.4185791,0.2571411-0.7957764,0.6488035-0.9434204c13.7411499-5.1782837,29.5094013-7.9623413,45.8502197-7.9623413  c16.3417931,0,32.1100426,2.7842407,45.852169,7.9628906C96.2425385,58.1887207,96.4996796,58.565918,96.4996796,58.9845581z"/></svg>