<svg width="44" height="37" viewBox="0 0 44 37" fill="none" xmlns="http://www.w3.org/2000/svg">
<path d="M15.285 27.3665H28.0518C28.2646 27.3665 28.4387 27.1924 28.4387 26.9797V22.9175C28.4387 22.7047 28.2646 22.5306 28.0518 22.5306H26.1174C25.9047 22.5306 25.7306 22.7047 25.7306 22.9175V24.6584H17.6062V22.9175C17.6062 22.7047 17.4321 22.5306 17.2193 22.5306H15.285C15.0722 22.5306 14.8981 22.7047 14.8981 22.9175V26.9797C14.8981 27.1924 15.0722 27.3665 15.285 27.3665ZM31.7271 21.4183C31.7271 21.9314 31.9309 22.4234 32.2937 22.7862C32.6564 23.1489 33.1485 23.3527 33.6615 23.3527C34.1745 23.3527 34.6665 23.1489 35.0293 22.7862C35.3921 22.4234 35.5959 21.9314 35.5959 21.4183C35.5959 20.9053 35.3921 20.4133 35.0293 20.0505C34.6665 19.6878 34.1745 19.484 33.6615 19.484C33.1485 19.484 32.6564 19.6878 32.2937 20.0505C31.9309 20.4133 31.7271 20.9053 31.7271 21.4183ZM43.285 13.3133L42.1389 11.3112C42.0874 11.223 42.003 11.1587 41.9042 11.1324C41.8055 11.1061 41.7003 11.12 41.6118 11.171L39.1599 12.6024L35.3734 2.14715C35.1735 1.52329 34.7805 0.979104 34.2511 0.593165C33.7218 0.207227 33.0834 -0.000491667 32.4283 8.7391e-07H11.4742C9.79617 8.7391e-07 8.3067 1.08325 7.78926 2.68394L4.18165 12.6073L1.725 11.1758C1.63643 11.1249 1.53128 11.111 1.43252 11.1373C1.33376 11.1635 1.24941 11.2278 1.19788 11.3161L0.051768 13.3133C-0.0546225 13.4971 0.00824471 13.7292 0.19201 13.8356L3.11291 15.5378L2.4117 17.4722C2.35367 17.627 2.32466 17.7914 2.32466 17.9558V34.7945C2.32466 35.5538 2.8953 36.1679 3.59651 36.1679H6.8656C7.46041 36.1679 7.97786 35.7182 8.10359 35.0895L8.47596 33.2664H34.8608L35.2332 35.0895C35.3637 35.7182 35.8763 36.1679 36.4712 36.1679H39.7403C40.4415 36.1679 41.0121 35.5538 41.0121 34.7945V17.9558C41.0121 17.7914 40.9831 17.627 40.9251 17.4722L40.2239 15.5378L43.1399 13.8356C43.2277 13.7849 43.2921 13.7018 43.3192 13.6041C43.3463 13.5064 43.3341 13.402 43.285 13.3133ZM37.5302 18.3233V29.7845H5.80653V18.3233L6.56093 16.2439H36.7758L37.5302 18.3233ZM11.0632 3.86875L11.0874 3.80588L11.1067 3.74301C11.1599 3.58343 11.305 3.47704 11.4742 3.47704H32.1527L35.799 13.5358H7.54746L11.0632 3.86875ZM7.7409 21.4183C7.7409 21.9314 7.9447 22.4234 8.30746 22.7862C8.67023 23.1489 9.16224 23.3527 9.67527 23.3527C10.1883 23.3527 10.6803 23.1489 11.0431 22.7862C11.4058 22.4234 11.6096 21.9314 11.6096 21.4183C11.6096 20.9053 11.4058 20.4133 11.0431 20.0505C10.6803 19.6878 10.1883 19.484 9.67527 19.484C9.16224 19.484 8.67023 19.6878 8.30746 20.0505C7.9447 20.4133 7.7409 20.9053 7.7409 21.4183Z" fill="black"/>
</svg>
