<svg width="43" height="36" viewBox="0 0 43 36" fill="none" xmlns="http://www.w3.org/2000/svg">
<path d="M23.375 25.0905H10.625C10.0614 25.0905 9.52093 25.2792 9.12242 25.6152C8.7239 25.9512 8.50002 26.4069 8.50002 26.8821C8.50002 27.3573 8.7239 27.813 9.12242 28.149C9.52093 28.485 10.0614 28.6738 10.625 28.6738H23.375C23.9386 28.6738 24.4791 28.485 24.8776 28.149C25.2761 27.813 25.5 27.3573 25.5 26.8821C25.5 26.4069 25.2761 25.9512 24.8776 25.6152C24.4791 25.2792 23.9386 25.0905 23.375 25.0905ZM14.875 14.3405H19.125C19.6886 14.3405 20.2291 14.1517 20.6276 13.8157C21.0261 13.4797 21.25 13.024 21.25 12.5488C21.25 12.0736 21.0261 11.6179 20.6276 11.2819C20.2291 10.9459 19.6886 10.7571 19.125 10.7571H14.875C14.3114 10.7571 13.7709 10.9459 13.3724 11.2819C12.9739 11.6179 12.75 12.0736 12.75 12.5488C12.75 13.024 12.9739 13.4797 13.3724 13.8157C13.7709 14.1517 14.3114 14.3405 14.875 14.3405ZM40.375 17.9238H34V1.79879C34.0015 1.48308 33.904 1.17264 33.7174 0.898916C33.5309 0.625189 33.2618 0.397891 32.9375 0.240038C32.6145 0.0827864 32.248 0 31.875 0C31.502 0 31.1356 0.0827864 30.8125 0.240038L24.4375 3.3217L18.0625 0.240038C17.7395 0.0827864 17.373 0 17 0C16.627 0 16.2606 0.0827864 15.9375 0.240038L9.56252 3.3217L3.18752 0.240038C2.86448 0.0827864 2.49803 0 2.12502 0C1.752 0 1.38556 0.0827864 1.06252 0.240038C0.738233 0.397891 0.469177 0.625189 0.282595 0.898916C0.0960134 1.17264 -0.00146983 1.48308 1.67511e-05 1.79879V30.4655C1.67511e-05 31.891 0.671667 33.2581 1.86721 34.2662C3.06276 35.2742 4.68426 35.8405 6.37502 35.8405H36.125C37.8158 35.8405 39.4373 35.2742 40.6328 34.2662C41.8284 33.2581 42.5 31.891 42.5 30.4655V19.7155C42.5 19.2403 42.2761 18.7846 41.8776 18.4486C41.4791 18.1126 40.9386 17.9238 40.375 17.9238ZM6.37502 32.2571C5.81143 32.2571 5.27093 32.0684 4.87242 31.7324C4.4739 31.3964 4.25002 30.9406 4.25002 30.4655V4.89837L8.50002 6.94087C8.82799 7.0853 9.19251 7.16073 9.56252 7.16073C9.93253 7.16073 10.2971 7.0853 10.625 6.94087L17 3.8592L23.375 6.94087C23.703 7.0853 24.0675 7.16073 24.4375 7.16073C24.8075 7.16073 25.1721 7.0853 25.5 6.94087L29.75 4.89837V30.4655C29.7558 31.0767 29.8851 31.6826 30.1325 32.2571H6.37502ZM38.25 30.4655C38.25 30.9406 38.0261 31.3964 37.6276 31.7324C37.2291 32.0684 36.6886 32.2571 36.125 32.2571C35.5614 32.2571 35.0209 32.0684 34.6224 31.7324C34.2239 31.3964 34 30.9406 34 30.4655V21.5071H38.25V30.4655ZM23.375 17.9238H10.625C10.0614 17.9238 9.52093 18.1126 9.12242 18.4486C8.7239 18.7846 8.50002 19.2403 8.50002 19.7155C8.50002 20.1906 8.7239 20.6464 9.12242 20.9824C9.52093 21.3184 10.0614 21.5071 10.625 21.5071H23.375C23.9386 21.5071 24.4791 21.3184 24.8776 20.9824C25.2761 20.6464 25.5 20.1906 25.5 19.7155C25.5 19.2403 25.2761 18.7846 24.8776 18.4486C24.4791 18.1126 23.9386 17.9238 23.375 17.9238Z" fill="black"/>
</svg>
